<svg width="320" height="353" viewBox="0 0 320 353" fill="none" xmlns="http://www.w3.org/2000/svg">
<path d="M0 124.25C0 117.623 5.37258 112.25 12 112.25H308C314.627 112.25 320 117.623 320 124.25V340.25C320 346.877 314.627 352.25 308 352.25H12C5.37259 352.25 0 346.877 0 340.25V124.25Z" fill="#91C03E"/>
<path d="M29 150.83C29 150.257 29.1333 149.75 29.4 149.31C29.6533 148.857 30.0067 148.503 30.46 148.25C30.9 147.983 31.4067 147.85 31.98 147.85H43.26C43.8333 147.85 44.34 147.983 44.78 148.25C45.2333 148.503 45.5867 148.857 45.84 149.31C46.1067 149.75 46.24 150.257 46.24 150.83V150.87C46.24 151.443 46.1067 151.957 45.84 152.41C45.5867 152.85 45.2333 153.203 44.78 153.47C44.34 153.723 43.8333 153.85 43.26 153.85H31.98C31.4067 153.85 30.9 153.723 30.46 153.47C30.0067 153.203 29.6533 152.85 29.4 152.41C29.1333 151.957 29 151.443 29 150.87V150.83ZM40.2305 150.83C40.2305 150.257 40.3638 149.75 40.6305 149.31C40.8838 148.857 41.2371 148.503 41.6905 148.25C42.1305 147.983 42.6371 147.85 43.2105 147.85H54.4905C55.0638 147.85 55.5705 147.983 56.0105 148.25C56.4638 148.503 56.8171 148.857 57.0705 149.31C57.3371 149.75 57.4705 150.257 57.4705 150.83V150.87C57.4705 151.443 57.3371 151.957 57.0705 152.41C56.8171 152.85 56.4638 153.203 56.0105 153.47C55.5705 153.723 55.0638 153.85 54.4905 153.85H43.2105C42.6371 153.85 42.1305 153.723 41.6905 153.47C41.2371 153.203 40.8838 152.85 40.6305 152.41C40.3638 151.957 40.2305 151.443 40.2305 150.87V150.83ZM51.4609 150.83C51.4609 150.257 51.5943 149.75 51.8609 149.31C52.1143 148.857 52.4676 148.503 52.9209 148.25C53.3609 147.983 53.8676 147.85 54.4409 147.85H65.7209C66.2943 147.85 66.8009 147.983 67.2409 148.25C67.6943 148.503 68.0476 148.857 68.3009 149.31C68.5676 149.75 68.7009 150.257 68.7009 150.83V150.87C68.7009 151.443 68.5676 151.957 68.3009 152.41C68.0476 152.85 67.6943 153.203 67.2409 153.47C66.8009 153.723 66.2943 153.85 65.7209 153.85H54.4409C53.8676 153.85 53.3609 153.723 52.9209 153.47C52.4676 153.203 52.1143 152.85 51.8609 152.41C51.5943 151.957 51.4609 151.443 51.4609 150.87V150.83ZM62.6914 150.83C62.6914 150.257 62.8247 149.75 63.0914 149.31C63.3447 148.857 63.6981 148.503 64.1514 148.25C64.5914 147.983 65.0981 147.85 65.6714 147.85H76.9514C77.5247 147.85 78.0314 147.983 78.4714 148.25C78.9247 148.503 79.2781 148.857 79.5314 149.31C79.7981 149.75 79.9314 150.257 79.9314 150.83V150.87C79.9314 151.443 79.7981 151.957 79.5314 152.41C79.2781 152.85 78.9247 153.203 78.4714 153.47C78.0314 153.723 77.5247 153.85 76.9514 153.85H65.6714C65.0981 153.85 64.5914 153.723 64.1514 153.47C63.6981 153.203 63.3447 152.85 63.0914 152.41C62.8247 151.957 62.6914 151.443 62.6914 150.87V150.83ZM73.9219 150.83C73.9219 150.257 74.0552 149.75 74.3219 149.31C74.5752 148.857 74.9285 148.503 75.3819 148.25C75.8219 147.983 76.3285 147.85 76.9019 147.85H88.1819C88.7552 147.85 89.2619 147.983 89.7019 148.25C90.1552 148.503 90.5085 148.857 90.7619 149.31C91.0285 149.75 91.1619 150.257 91.1619 150.83V150.87C91.1619 151.443 91.0285 151.957 90.7619 152.41C90.5085 152.85 90.1552 153.203 89.7019 153.47C89.2619 153.723 88.7552 153.85 88.1819 153.85H76.9019C76.3285 153.85 75.8219 153.723 75.3819 153.47C74.9285 153.203 74.5752 152.85 74.3219 152.41C74.0552 151.957 73.9219 151.443 73.9219 150.87V150.83ZM97.1445 150.83C97.1445 150.257 97.2779 149.75 97.5445 149.31C97.7979 148.857 98.1512 148.503 98.6045 148.25C99.0445 147.983 99.5512 147.85 100.125 147.85H111.405C111.978 147.85 112.485 147.983 112.925 148.25C113.378 148.503 113.731 148.857 113.985 149.31C114.251 149.75 114.385 150.257 114.385 150.83V150.87C114.385 151.443 114.251 151.957 113.985 152.41C113.731 152.85 113.378 153.203 112.925 153.47C112.485 153.723 111.978 153.85 111.405 153.85H100.125C99.5512 153.85 99.0445 153.723 98.6045 153.47C98.1512 153.203 97.7979 152.85 97.5445 152.41C97.2779 151.957 97.1445 151.443 97.1445 150.87V150.83ZM108.375 150.83C108.375 150.257 108.508 149.75 108.775 149.31C109.028 148.857 109.382 148.503 109.835 148.25C110.275 147.983 110.782 147.85 111.355 147.85H117.115C117.688 147.85 118.195 147.983 118.635 148.25C119.088 148.503 119.442 148.857 119.695 149.31C119.962 149.75 120.095 150.257 120.095 150.83V150.87C120.095 151.443 119.962 151.957 119.695 152.41C119.442 152.85 119.088 153.203 118.635 153.47C118.195 153.723 117.688 153.85 117.115 153.85H111.355C110.782 153.85 110.275 153.723 109.835 153.47C109.382 153.203 109.028 152.85 108.775 152.41C108.508 151.957 108.375 151.443 108.375 150.87V150.83ZM114.098 150.83C114.098 150.257 114.231 149.75 114.498 149.31C114.751 148.857 115.104 148.503 115.558 148.25C115.998 147.983 116.504 147.85 117.078 147.85H128.358C128.931 147.85 129.438 147.983 129.878 148.25C130.331 148.503 130.684 148.857 130.938 149.31C131.204 149.75 131.338 150.257 131.338 150.83V150.87C131.338 151.443 131.204 151.957 130.938 152.41C130.684 152.85 130.331 153.203 129.878 153.47C129.438 153.723 128.931 153.85 128.358 153.85H117.078C116.504 153.85 115.998 153.723 115.558 153.47C115.104 153.203 114.751 152.85 114.498 152.41C114.231 151.957 114.098 151.443 114.098 150.87V150.83ZM125.328 150.83C125.328 150.257 125.461 149.75 125.728 149.31C125.981 148.857 126.335 148.503 126.788 148.25C127.228 147.983 127.735 147.85 128.308 147.85H134.068C134.641 147.85 135.148 147.983 135.588 148.25C136.041 148.503 136.395 148.857 136.648 149.31C136.915 149.75 137.048 150.257 137.048 150.83V150.87C137.048 151.443 136.915 151.957 136.648 152.41C136.395 152.85 136.041 153.203 135.588 153.47C135.148 153.723 134.641 153.85 134.068 153.85H128.308C127.735 153.85 127.228 153.723 126.788 153.47C126.335 153.203 125.981 152.85 125.728 152.41C125.461 151.957 125.328 151.443 125.328 150.87V150.83ZM131.051 150.83C131.051 150.257 131.184 149.75 131.451 149.31C131.704 148.857 132.057 148.503 132.511 148.25C132.951 147.983 133.457 147.85 134.031 147.85H145.311C145.884 147.85 146.391 147.983 146.831 148.25C147.284 148.503 147.637 148.857 147.891 149.31C148.157 149.75 148.291 150.257 148.291 150.83V150.87C148.291 151.443 148.157 151.957 147.891 152.41C147.637 152.85 147.284 153.203 146.831 153.47C146.391 153.723 145.884 153.85 145.311 153.85H134.031C133.457 153.85 132.951 153.723 132.511 153.47C132.057 153.203 131.704 152.85 131.451 152.41C131.184 151.957 131.051 151.443 131.051 150.87V150.83ZM142.281 150.83C142.281 150.257 142.415 149.75 142.681 149.31C142.935 148.857 143.288 148.503 143.741 148.25C144.181 147.983 144.688 147.85 145.261 147.85H156.541C157.115 147.85 157.621 147.983 158.061 148.25C158.515 148.503 158.868 148.857 159.121 149.31C159.388 149.75 159.521 150.257 159.521 150.83V150.87C159.521 151.443 159.388 151.957 159.121 152.41C158.868 152.85 158.515 153.203 158.061 153.47C157.621 153.723 157.115 153.85 156.541 153.85H145.261C144.688 153.85 144.181 153.723 143.741 153.47C143.288 153.203 142.935 152.85 142.681 152.41C142.415 151.957 142.281 151.443 142.281 150.87V150.83ZM153.512 150.83C153.512 150.257 153.645 149.75 153.912 149.31C154.165 148.857 154.518 148.503 154.972 148.25C155.412 147.983 155.918 147.85 156.492 147.85H162.252C162.825 147.85 163.332 147.983 163.772 148.25C164.225 148.503 164.578 148.857 164.832 149.31C165.098 149.75 165.232 150.257 165.232 150.83V150.87C165.232 151.443 165.098 151.957 164.832 152.41C164.578 152.85 164.225 153.203 163.772 153.47C163.332 153.723 162.825 153.85 162.252 153.85H156.492C155.918 153.85 155.412 153.723 154.972 153.47C154.518 153.203 154.165 152.85 153.912 152.41C153.645 151.957 153.512 151.443 153.512 150.87V150.83ZM171.227 150.83C171.227 150.257 171.36 149.75 171.627 149.31C171.88 148.857 172.233 148.503 172.687 148.25C173.127 147.983 173.633 147.85 174.207 147.85H185.487C186.06 147.85 186.567 147.983 187.007 148.25C187.46 148.503 187.813 148.857 188.067 149.31C188.333 149.75 188.467 150.257 188.467 150.83V150.87C188.467 151.443 188.333 151.957 188.067 152.41C187.813 152.85 187.46 153.203 187.007 153.47C186.567 153.723 186.06 153.85 185.487 153.85H174.207C173.633 153.85 173.127 153.723 172.687 153.47C172.233 153.203 171.88 152.85 171.627 152.41C171.36 151.957 171.227 151.443 171.227 150.87V150.83ZM182.457 150.83C182.457 150.257 182.59 149.75 182.857 149.31C183.11 148.857 183.464 148.503 183.917 148.25C184.357 147.983 184.864 147.85 185.437 147.85H191.197C191.77 147.85 192.277 147.983 192.717 148.25C193.17 148.503 193.524 148.857 193.777 149.31C194.044 149.75 194.177 150.257 194.177 150.83V150.87C194.177 151.443 194.044 151.957 193.777 152.41C193.524 152.85 193.17 153.203 192.717 153.47C192.277 153.723 191.77 153.85 191.197 153.85H185.437C184.864 153.85 184.357 153.723 183.917 153.47C183.464 153.203 183.11 152.85 182.857 152.41C182.59 151.957 182.457 151.443 182.457 150.87V150.83ZM188.18 150.83C188.18 150.257 188.313 149.75 188.58 149.31C188.833 148.857 189.186 148.503 189.64 148.25C190.08 147.983 190.586 147.85 191.16 147.85H202.44C203.013 147.85 203.52 147.983 203.96 148.25C204.413 148.503 204.766 148.857 205.02 149.31C205.286 149.75 205.42 150.257 205.42 150.83V150.87C205.42 151.443 205.286 151.957 205.02 152.41C204.766 152.85 204.413 153.203 203.96 153.47C203.52 153.723 203.013 153.85 202.44 153.85H191.16C190.586 153.85 190.08 153.723 189.64 153.47C189.186 153.203 188.833 152.85 188.58 152.41C188.313 151.957 188.18 151.443 188.18 150.87V150.83ZM199.41 150.83C199.41 150.257 199.543 149.75 199.81 149.31C200.063 148.857 200.417 148.503 200.87 148.25C201.31 147.983 201.817 147.85 202.39 147.85H208.15C208.723 147.85 209.23 147.983 209.67 148.25C210.123 148.503 210.477 148.857 210.73 149.31C210.997 149.75 211.13 150.257 211.13 150.83V150.87C211.13 151.443 210.997 151.957 210.73 152.41C210.477 152.85 210.123 153.203 209.67 153.47C209.23 153.723 208.723 153.85 208.15 153.85H202.39C201.817 153.85 201.31 153.723 200.87 153.47C200.417 153.203 200.063 152.85 199.81 152.41C199.543 151.957 199.41 151.443 199.41 150.87V150.83ZM205.133 150.83C205.133 150.257 205.266 149.75 205.533 149.31C205.786 148.857 206.139 148.503 206.593 148.25C207.033 147.983 207.539 147.85 208.113 147.85H219.393C219.966 147.85 220.473 147.983 220.913 148.25C221.366 148.503 221.719 148.857 221.973 149.31C222.239 149.75 222.373 150.257 222.373 150.83V150.87C222.373 151.443 222.239 151.957 221.973 152.41C221.719 152.85 221.366 153.203 220.913 153.47C220.473 153.723 219.966 153.85 219.393 153.85H208.113C207.539 153.85 207.033 153.723 206.593 153.47C206.139 153.203 205.786 152.85 205.533 152.41C205.266 151.957 205.133 151.443 205.133 150.87V150.83ZM216.363 150.83C216.363 150.257 216.497 149.75 216.763 149.31C217.017 148.857 217.37 148.503 217.823 148.25C218.263 147.983 218.77 147.85 219.343 147.85H230.623C231.197 147.85 231.703 147.983 232.143 148.25C232.597 148.503 232.95 148.857 233.203 149.31C233.47 149.75 233.603 150.257 233.603 150.83V150.87C233.603 151.443 233.47 151.957 233.203 152.41C232.95 152.85 232.597 153.203 232.143 153.47C231.703 153.723 231.197 153.85 230.623 153.85H219.343C218.77 153.85 218.263 153.723 217.823 153.47C217.37 153.203 217.017 152.85 216.763 152.41C216.497 151.957 216.363 151.443 216.363 150.87V150.83ZM227.594 150.83C227.594 150.257 227.727 149.75 227.994 149.31C228.247 148.857 228.6 148.503 229.054 148.25C229.494 147.983 230 147.85 230.574 147.85H236.334C236.907 147.85 237.414 147.983 237.854 148.25C238.307 148.503 238.66 148.857 238.914 149.31C239.18 149.75 239.314 150.257 239.314 150.83V150.87C239.314 151.443 239.18 151.957 238.914 152.41C238.66 152.85 238.307 153.203 237.854 153.47C237.414 153.723 236.907 153.85 236.334 153.85H230.574C230 153.85 229.494 153.723 229.054 153.47C228.6 153.203 228.247 152.85 227.994 152.41C227.727 151.957 227.594 151.443 227.594 150.87V150.83ZM233.316 150.83C233.316 150.257 233.45 149.75 233.716 149.31C233.97 148.857 234.323 148.503 234.776 148.25C235.216 147.983 235.723 147.85 236.296 147.85H247.576C248.15 147.85 248.656 147.983 249.096 148.25C249.55 148.503 249.903 148.857 250.156 149.31C250.423 149.75 250.556 150.257 250.556 150.83V150.87C250.556 151.443 250.423 151.957 250.156 152.41C249.903 152.85 249.55 153.203 249.096 153.47C248.656 153.723 248.15 153.85 247.576 153.85H236.296C235.723 153.85 235.216 153.723 234.776 153.47C234.323 153.203 233.97 152.85 233.716 152.41C233.45 151.957 233.316 151.443 233.316 150.87V150.83ZM244.547 150.83C244.547 150.257 244.68 149.75 244.947 149.31C245.2 148.857 245.554 148.503 246.007 148.25C246.447 147.983 246.954 147.85 247.527 147.85H258.807C259.38 147.85 259.887 147.983 260.327 148.25C260.78 148.503 261.134 148.857 261.387 149.31C261.654 149.75 261.787 150.257 261.787 150.83V150.87C261.787 151.443 261.654 151.957 261.387 152.41C261.134 152.85 260.78 153.203 260.327 153.47C259.887 153.723 259.38 153.85 258.807 153.85H247.527C246.954 153.85 246.447 153.723 246.007 153.47C245.554 153.203 245.2 152.85 244.947 152.41C244.68 151.957 244.547 151.443 244.547 150.87V150.83ZM255.777 150.83C255.777 150.257 255.911 149.75 256.177 149.31C256.431 148.857 256.784 148.503 257.237 148.25C257.677 147.983 258.184 147.85 258.757 147.85H270.037C270.611 147.85 271.117 147.983 271.557 148.25C272.011 148.503 272.364 148.857 272.617 149.31C272.884 149.75 273.017 150.257 273.017 150.83V150.87C273.017 151.443 272.884 151.957 272.617 152.41C272.364 152.85 272.011 153.203 271.557 153.47C271.117 153.723 270.611 153.85 270.037 153.85H258.757C258.184 153.85 257.677 153.723 257.237 153.47C256.784 153.203 256.431 152.85 256.177 152.41C255.911 151.957 255.777 151.443 255.777 150.87V150.83ZM267.008 150.83C267.008 150.257 267.141 149.75 267.408 149.31C267.661 148.857 268.014 148.503 268.468 148.25C268.908 147.983 269.414 147.85 269.988 147.85H281.268C281.841 147.85 282.348 147.983 282.788 148.25C283.241 148.503 283.594 148.857 283.848 149.31C284.114 149.75 284.248 150.257 284.248 150.83V150.87C284.248 151.443 284.114 151.957 283.848 152.41C283.594 152.85 283.241 153.203 282.788 153.47C282.348 153.723 281.841 153.85 281.268 153.85H269.988C269.414 153.85 268.908 153.723 268.468 153.47C268.014 153.203 267.661 152.85 267.408 152.41C267.141 151.957 267.008 151.443 267.008 150.87V150.83ZM29 180.83C29 180.257 29.1333 179.75 29.4 179.31C29.6533 178.857 30.0067 178.503 30.46 178.25C30.9 177.983 31.4067 177.85 31.98 177.85H37.74C38.3133 177.85 38.82 177.983 39.26 178.25C39.7133 178.503 40.0667 178.857 40.32 179.31C40.5867 179.75 40.72 180.257 40.72 180.83V180.87C40.72 181.443 40.5867 181.957 40.32 182.41C40.0667 182.85 39.7133 183.203 39.26 183.47C38.82 183.723 38.3133 183.85 37.74 183.85H31.98C31.4067 183.85 30.9 183.723 30.46 183.47C30.0067 183.203 29.6533 182.85 29.4 182.41C29.1333 181.957 29 181.443 29 180.87V180.83ZM34.7227 180.83C34.7227 180.257 34.856 179.75 35.1227 179.31C35.376 178.857 35.7293 178.503 36.1827 178.25C36.6227 177.983 37.1293 177.85 37.7027 177.85H43.4627C44.036 177.85 44.5427 177.983 44.9827 178.25C45.436 178.503 45.7893 178.857 46.0427 179.31C46.3093 179.75 46.4427 180.257 46.4427 180.83V180.87C46.4427 181.443 46.3093 181.957 46.0427 182.41C45.7893 182.85 45.436 183.203 44.9827 183.47C44.5427 183.723 44.036 183.85 43.4627 183.85H37.7027C37.1293 183.85 36.6227 183.723 36.1827 183.47C35.7293 183.203 35.376 182.85 35.1227 182.41C34.856 181.957 34.7227 181.443 34.7227 180.87V180.83ZM40.4453 180.83C40.4453 180.257 40.5786 179.75 40.8453 179.31C41.0986 178.857 41.452 178.503 41.9053 178.25C42.3453 177.983 42.852 177.85 43.4253 177.85H54.7053C55.2786 177.85 55.7853 177.983 56.2253 178.25C56.6786 178.503 57.032 178.857 57.2853 179.31C57.552 179.75 57.6853 180.257 57.6853 180.83V180.87C57.6853 181.443 57.552 181.957 57.2853 182.41C57.032 182.85 56.6786 183.203 56.2253 183.47C55.7853 183.723 55.2786 183.85 54.7053 183.85H43.4253C42.852 183.85 42.3453 183.723 41.9053 183.47C41.452 183.203 41.0986 182.85 40.8453 182.41C40.5786 181.957 40.4453 181.443 40.4453 180.87V180.83ZM51.6758 180.83C51.6758 180.257 51.8091 179.75 52.0758 179.31C52.3291 178.857 52.6824 178.503 53.1358 178.25C53.5758 177.983 54.0824 177.85 54.6558 177.85H65.9358C66.5091 177.85 67.0158 177.983 67.4558 178.25C67.9091 178.503 68.2624 178.857 68.5158 179.31C68.7824 179.75 68.9158 180.257 68.9158 180.83V180.87C68.9158 181.443 68.7824 181.957 68.5158 182.41C68.2624 182.85 67.9091 183.203 67.4558 183.47C67.0158 183.723 66.5091 183.85 65.9358 183.85H54.6558C54.0824 183.85 53.5758 183.723 53.1358 183.47C52.6824 183.203 52.3291 182.85 52.0758 182.41C51.8091 181.957 51.6758 181.443 51.6758 180.87V180.83ZM62.9062 180.83C62.9062 180.257 63.0396 179.75 63.3062 179.31C63.5596 178.857 63.9129 178.503 64.3662 178.25C64.8062 177.983 65.3129 177.85 65.8862 177.85H77.1663C77.7396 177.85 78.2463 177.983 78.6863 178.25C79.1396 178.503 79.4929 178.857 79.7463 179.31C80.0129 179.75 80.1463 180.257 80.1463 180.83V180.87C80.1463 181.443 80.0129 181.957 79.7463 182.41C79.4929 182.85 79.1396 183.203 78.6863 183.47C78.2463 183.723 77.7396 183.85 77.1663 183.85H65.8862C65.3129 183.85 64.8062 183.723 64.3662 183.47C63.9129 183.203 63.5596 182.85 63.3062 182.41C63.0396 181.957 62.9062 181.443 62.9062 180.87V180.83ZM86.1289 180.83C86.1289 180.257 86.2622 179.75 86.5289 179.31C86.7822 178.857 87.1356 178.503 87.5889 178.25C88.0289 177.983 88.5356 177.85 89.1089 177.85H94.8689C95.4422 177.85 95.9489 177.983 96.3889 178.25C96.8422 178.503 97.1956 178.857 97.4489 179.31C97.7156 179.75 97.8489 180.257 97.8489 180.83V180.87C97.8489 181.443 97.7156 181.957 97.4489 182.41C97.1956 182.85 96.8422 183.203 96.3889 183.47C95.9489 183.723 95.4422 183.85 94.8689 183.85H89.1089C88.5356 183.85 88.0289 183.723 87.5889 183.47C87.1356 183.203 86.7822 182.85 86.5289 182.41C86.2622 181.957 86.1289 181.443 86.1289 180.87V180.83Z" fill="#F9FAFB"/>
<path d="M32 214.25C32 210.936 34.6863 208.25 38 208.25H291C294.314 208.25 297 210.936 297 214.25V226.25C297 229.564 294.314 232.25 291 232.25H38C34.6863 232.25 32 229.564 32 226.25V214.25Z" fill="#DCE8A2"/>
<path d="M32 254.25C32 250.936 34.6863 248.25 38 248.25H291C294.314 248.25 297 250.936 297 254.25V266.25C297 269.564 294.314 272.25 291 272.25H38C34.6863 272.25 32 269.564 32 266.25V254.25Z" fill="#DCE8A2"/>
<path d="M111 8.25C111 3.83172 114.582 0.25 119 0.25H312C316.418 0.25 320 3.83172 320 8.25V62.25C320 66.6683 316.418 70.25 312 70.25H119C114.582 70.25 111 66.6683 111 62.25V8.25Z" fill="#FACC15"/>
<path d="M193 70.25L234.999 94.5163C236.333 95.2867 238 94.3245 238 92.7846L238 70.25L193 70.25Z" fill="#FACC15"/>
<path d="M129.352 17.6136H131.733L134.58 22.7614H134.693L137.54 17.6136H139.92L135.688 24.9091V29.25H133.585V24.9091L129.352 17.6136ZM143.504 29.4205C142.652 29.4205 141.913 29.233 141.288 28.858C140.663 28.483 140.179 27.9583 139.834 27.2841C139.493 26.6098 139.322 25.822 139.322 24.9205C139.322 24.0189 139.493 23.2292 139.834 22.5511C140.179 21.8731 140.663 21.3466 141.288 20.9716C141.913 20.5966 142.652 20.4091 143.504 20.4091C144.357 20.4091 145.095 20.5966 145.72 20.9716C146.345 21.3466 146.828 21.8731 147.169 22.5511C147.514 23.2292 147.686 24.0189 147.686 24.9205C147.686 25.822 147.514 26.6098 147.169 27.2841C146.828 27.9583 146.345 28.483 145.72 28.858C145.095 29.233 144.357 29.4205 143.504 29.4205ZM143.516 27.7727C143.978 27.7727 144.364 27.6458 144.675 27.392C144.985 27.1345 145.216 26.7898 145.368 26.358C145.523 25.9261 145.601 25.4451 145.601 24.9148C145.601 24.3807 145.523 23.8977 145.368 23.4659C145.216 23.0303 144.985 22.6837 144.675 22.4261C144.364 22.1686 143.978 22.0398 143.516 22.0398C143.042 22.0398 142.648 22.1686 142.334 22.4261C142.023 22.6837 141.79 23.0303 141.635 23.4659C141.483 23.8977 141.408 24.3807 141.408 24.9148C141.408 25.4451 141.483 25.9261 141.635 26.358C141.79 26.7898 142.023 27.1345 142.334 27.392C142.648 27.6458 143.042 27.7727 143.516 27.7727ZM154.994 25.5795V20.5227H157.051V29.25H155.057V27.6989H154.966C154.769 28.1875 154.445 28.5871 153.994 28.8977C153.547 29.2083 152.996 29.3636 152.341 29.3636C151.769 29.3636 151.263 29.2367 150.824 28.983C150.388 28.7254 150.047 28.3523 149.801 27.8636C149.555 27.3712 149.432 26.7765 149.432 26.0795V20.5227H151.489V25.7614C151.489 26.3144 151.64 26.7538 151.943 27.0795C152.246 27.4053 152.644 27.5682 153.136 27.5682C153.439 27.5682 153.733 27.4943 154.017 27.3466C154.301 27.1989 154.534 26.9792 154.716 26.6875C154.902 26.392 154.994 26.0227 154.994 25.5795ZM159.166 29.25V20.5227H161.161V21.9773H161.251C161.411 21.4735 161.683 21.0852 162.07 20.8125C162.46 20.536 162.905 20.3977 163.405 20.3977C163.518 20.3977 163.645 20.4034 163.786 20.4148C163.929 20.4223 164.049 20.4356 164.143 20.4545V22.3466C164.056 22.3163 163.918 22.2898 163.729 22.267C163.543 22.2405 163.363 22.2273 163.189 22.2273C162.814 22.2273 162.477 22.3087 162.178 22.4716C161.882 22.6307 161.649 22.8523 161.479 23.1364C161.308 23.4205 161.223 23.7481 161.223 24.1193V29.25H159.166ZM172.717 29.4034C172.032 29.4034 171.418 29.2273 170.876 28.875C170.335 28.5227 169.907 28.0114 169.592 27.3409C169.278 26.6705 169.121 25.8561 169.121 24.8977C169.121 23.928 169.28 23.1098 169.598 22.4432C169.92 21.7727 170.354 21.267 170.899 20.9261C171.445 20.5814 172.053 20.4091 172.723 20.4091C173.234 20.4091 173.655 20.4962 173.984 20.6705C174.314 20.8409 174.575 21.0473 174.768 21.2898C174.962 21.5284 175.111 21.7538 175.217 21.9659H175.303V17.6136H177.365V29.25H175.342V27.875H175.217C175.111 28.0871 174.958 28.3125 174.757 28.5511C174.556 28.786 174.291 28.9867 173.962 29.1534C173.632 29.3201 173.217 29.4034 172.717 29.4034ZM173.291 27.7159C173.727 27.7159 174.098 27.5985 174.405 27.3636C174.712 27.125 174.945 26.7936 175.104 26.3693C175.263 25.9451 175.342 25.4508 175.342 24.8864C175.342 24.322 175.263 23.8314 175.104 23.4148C174.948 22.9981 174.717 22.6742 174.411 22.4432C174.107 22.2121 173.734 22.0966 173.291 22.0966C172.833 22.0966 172.45 22.2159 172.143 22.4545C171.837 22.6932 171.606 23.0227 171.45 23.4432C171.295 23.8636 171.217 24.3447 171.217 24.8864C171.217 25.4318 171.295 25.9186 171.45 26.3466C171.609 26.7708 171.842 27.1061 172.149 27.3523C172.46 27.5947 172.84 27.7159 173.291 27.7159ZM183.42 29.4205C182.545 29.4205 181.79 29.2386 181.153 28.875C180.521 28.5076 180.034 27.9886 179.693 27.3182C179.352 26.6439 179.182 25.8504 179.182 24.9375C179.182 24.0398 179.352 23.2519 179.693 22.5739C180.038 21.892 180.519 21.3617 181.136 20.983C181.754 20.6004 182.479 20.4091 183.312 20.4091C183.85 20.4091 184.358 20.4962 184.835 20.6705C185.316 20.8409 185.741 21.1061 186.108 21.4659C186.479 21.8258 186.771 22.2841 186.983 22.8409C187.195 23.3939 187.301 24.053 187.301 24.8182V25.4489H180.148V24.0625H185.33C185.326 23.6686 185.241 23.3182 185.074 23.0114C184.907 22.7008 184.674 22.4564 184.375 22.2784C184.08 22.1004 183.735 22.0114 183.341 22.0114C182.92 22.0114 182.551 22.1136 182.233 22.3182C181.915 22.5189 181.667 22.7841 181.489 23.1136C181.314 23.4394 181.225 23.7973 181.222 24.1875V25.3977C181.222 25.9053 181.314 26.3409 181.5 26.7045C181.686 27.0644 181.945 27.3409 182.278 27.5341C182.612 27.7235 183.002 27.8182 183.449 27.8182C183.748 27.8182 184.019 27.7765 184.261 27.6932C184.504 27.6061 184.714 27.4792 184.892 27.3125C185.07 27.1458 185.205 26.9394 185.295 26.6932L187.216 26.9091C187.095 27.4167 186.864 27.8598 186.523 28.2386C186.186 28.6136 185.754 28.9053 185.227 29.1136C184.701 29.3182 184.098 29.4205 183.42 29.4205ZM196.587 20.5227L193.479 29.25H191.206L188.098 20.5227H190.291L192.297 27.0057H192.388L194.399 20.5227H196.587ZM198.01 29.25V20.5227H200.067V29.25H198.01ZM199.044 19.2841C198.718 19.2841 198.438 19.1761 198.203 18.9602C197.968 18.7405 197.851 18.4773 197.851 18.1705C197.851 17.8598 197.968 17.5966 198.203 17.3807C198.438 17.161 198.718 17.0511 199.044 17.0511C199.374 17.0511 199.654 17.161 199.885 17.3807C200.12 17.5966 200.237 17.8598 200.237 18.1705C200.237 18.4773 200.12 18.7405 199.885 18.9602C199.654 19.1761 199.374 19.2841 199.044 19.2841ZM205.989 29.4205C205.117 29.4205 204.369 29.2292 203.744 28.8466C203.123 28.464 202.644 27.9356 202.307 27.2614C201.973 26.5833 201.807 25.803 201.807 24.9205C201.807 24.0341 201.977 23.2519 202.318 22.5739C202.659 21.892 203.14 21.3617 203.761 20.983C204.386 20.6004 205.125 20.4091 205.977 20.4091C206.686 20.4091 207.313 20.5398 207.858 20.8011C208.407 21.0587 208.845 21.4242 209.17 21.8977C209.496 22.3674 209.682 22.9167 209.727 23.5455H207.761C207.682 23.125 207.492 22.7746 207.193 22.4943C206.898 22.2102 206.502 22.0682 206.006 22.0682C205.585 22.0682 205.216 22.1818 204.898 22.4091C204.58 22.6326 204.331 22.9545 204.153 23.375C203.979 23.7955 203.892 24.2992 203.892 24.8864C203.892 25.4811 203.979 25.9924 204.153 26.4205C204.328 26.8447 204.572 27.1723 204.886 27.4034C205.205 27.6307 205.578 27.7443 206.006 27.7443C206.309 27.7443 206.58 27.6875 206.818 27.5739C207.061 27.4564 207.263 27.2879 207.426 27.0682C207.589 26.8485 207.701 26.5814 207.761 26.267H209.727C209.678 26.8845 209.496 27.4318 209.182 27.9091C208.867 28.3826 208.439 28.7538 207.898 29.0227C207.356 29.2879 206.72 29.4205 205.989 29.4205ZM215.28 29.4205C214.405 29.4205 213.649 29.2386 213.013 28.875C212.38 28.5076 211.893 27.9886 211.553 27.3182C211.212 26.6439 211.041 25.8504 211.041 24.9375C211.041 24.0398 211.212 23.2519 211.553 22.5739C211.897 21.892 212.378 21.3617 212.996 20.983C213.613 20.6004 214.339 20.4091 215.172 20.4091C215.71 20.4091 216.217 20.4962 216.695 20.6705C217.176 20.8409 217.6 21.1061 217.967 21.4659C218.339 21.8258 218.63 22.2841 218.842 22.8409C219.054 23.3939 219.161 24.053 219.161 24.8182V25.4489H212.007V24.0625H217.189C217.185 23.6686 217.1 23.3182 216.933 23.0114C216.767 22.7008 216.534 22.4564 216.234 22.2784C215.939 22.1004 215.594 22.0114 215.2 22.0114C214.78 22.0114 214.411 22.1136 214.092 22.3182C213.774 22.5189 213.526 22.7841 213.348 23.1136C213.174 23.4394 213.085 23.7973 213.081 24.1875V25.3977C213.081 25.9053 213.174 26.3409 213.359 26.7045C213.545 27.0644 213.804 27.3409 214.138 27.5341C214.471 27.7235 214.861 27.8182 215.308 27.8182C215.607 27.8182 215.878 27.7765 216.121 27.6932C216.363 27.6061 216.573 27.4792 216.751 27.3125C216.929 27.1458 217.064 26.9394 217.155 26.6932L219.075 26.9091C218.954 27.4167 218.723 27.8598 218.382 28.2386C218.045 28.6136 217.613 28.9053 217.087 29.1136C216.56 29.3182 215.958 29.4205 215.28 29.4205ZM227.798 22.8295L225.923 23.0341C225.87 22.8447 225.777 22.6667 225.645 22.5C225.516 22.3333 225.342 22.1989 225.122 22.0966C224.902 21.9943 224.634 21.9432 224.315 21.9432C223.887 21.9432 223.527 22.036 223.236 22.2216C222.948 22.4072 222.806 22.6477 222.81 22.9432C222.806 23.197 222.899 23.4034 223.088 23.5625C223.281 23.7216 223.599 23.8523 224.043 23.9545L225.531 24.2727C226.357 24.4508 226.971 24.733 227.372 25.1193C227.777 25.5057 227.982 26.0114 227.986 26.6364C227.982 27.1856 227.821 27.6705 227.503 28.0909C227.188 28.5076 226.751 28.8333 226.19 29.0682C225.63 29.303 224.986 29.4205 224.259 29.4205C223.19 29.4205 222.33 29.197 221.679 28.75C221.027 28.2992 220.639 27.6723 220.514 26.8693L222.52 26.6761C222.611 27.0701 222.804 27.3674 223.099 27.5682C223.395 27.7689 223.779 27.8693 224.253 27.8693C224.741 27.8693 225.134 27.7689 225.429 27.5682C225.728 27.3674 225.878 27.1193 225.878 26.8239C225.878 26.5739 225.781 26.3674 225.588 26.2045C225.399 26.0417 225.103 25.9167 224.702 25.8295L223.213 25.517C222.376 25.3428 221.757 25.0492 221.355 24.6364C220.954 24.2197 220.755 23.6932 220.759 23.0568C220.755 22.5189 220.901 22.053 221.196 21.6591C221.495 21.2614 221.91 20.9545 222.44 20.7386C222.974 20.5189 223.59 20.4091 224.287 20.4091C225.31 20.4091 226.115 20.6269 226.702 21.0625C227.293 21.4981 227.658 22.0871 227.798 22.8295ZM236.162 29.4261C235.609 29.4261 235.111 29.3277 234.668 29.1307C234.228 28.9299 233.88 28.6345 233.622 28.2443C233.368 27.8542 233.241 27.3731 233.241 26.8011C233.241 26.3087 233.332 25.9015 233.514 25.5795C233.696 25.2576 233.944 25 234.259 24.8068C234.573 24.6136 234.927 24.4678 235.321 24.3693C235.719 24.267 236.13 24.1932 236.554 24.1477C237.065 24.0947 237.48 24.0473 237.798 24.0057C238.116 23.9602 238.348 23.892 238.491 23.8011C238.639 23.7064 238.713 23.5606 238.713 23.3636V23.3295C238.713 22.9015 238.586 22.5701 238.332 22.3352C238.079 22.1004 237.713 21.983 237.236 21.983C236.732 21.983 236.332 22.0928 236.037 22.3125C235.745 22.5322 235.548 22.7917 235.446 23.0909L233.526 22.8182C233.677 22.2879 233.927 21.8447 234.276 21.4886C234.624 21.1288 235.05 20.8598 235.554 20.6818C236.058 20.5 236.615 20.4091 237.224 20.4091C237.645 20.4091 238.063 20.4583 238.48 20.5568C238.897 20.6553 239.277 20.8182 239.622 21.0455C239.967 21.2689 240.243 21.5739 240.452 21.9602C240.664 22.3466 240.77 22.8295 240.77 23.4091V29.25H238.793V28.0511H238.724C238.599 28.2936 238.423 28.5208 238.196 28.733C237.973 28.9413 237.69 29.1098 237.349 29.2386C237.012 29.3636 236.616 29.4261 236.162 29.4261ZM236.696 27.9148C237.109 27.9148 237.467 27.8333 237.77 27.6705C238.073 27.5038 238.306 27.2841 238.469 27.0114C238.635 26.7386 238.719 26.4413 238.719 26.1193V25.0909C238.654 25.1439 238.545 25.1932 238.389 25.2386C238.238 25.2841 238.067 25.3239 237.878 25.358C237.688 25.392 237.501 25.4223 237.315 25.4489C237.13 25.4754 236.969 25.4981 236.832 25.517C236.526 25.5587 236.251 25.6269 236.009 25.7216C235.766 25.8163 235.575 25.9489 235.435 26.1193C235.295 26.286 235.224 26.5019 235.224 26.767C235.224 27.1458 235.363 27.4318 235.639 27.625C235.916 27.8182 236.268 27.9148 236.696 27.9148ZM242.838 29.25V20.5227H244.832V21.9773H244.923C245.082 21.4735 245.355 21.0852 245.741 20.8125C246.132 20.536 246.577 20.3977 247.077 20.3977C247.19 20.3977 247.317 20.4034 247.457 20.4148C247.601 20.4223 247.721 20.4356 247.815 20.4545V22.3466C247.728 22.3163 247.59 22.2898 247.401 22.267C247.215 22.2405 247.035 22.2273 246.861 22.2273C246.486 22.2273 246.149 22.3087 245.849 22.4716C245.554 22.6307 245.321 22.8523 245.151 23.1364C244.98 23.4205 244.895 23.7481 244.895 24.1193V29.25H242.838ZM252.686 29.4205C251.811 29.4205 251.055 29.2386 250.419 28.875C249.786 28.5076 249.3 27.9886 248.959 27.3182C248.618 26.6439 248.447 25.8504 248.447 24.9375C248.447 24.0398 248.618 23.2519 248.959 22.5739C249.304 21.892 249.785 21.3617 250.402 20.983C251.019 20.6004 251.745 20.4091 252.578 20.4091C253.116 20.4091 253.624 20.4962 254.101 20.6705C254.582 20.8409 255.006 21.1061 255.374 21.4659C255.745 21.8258 256.036 22.2841 256.249 22.8409C256.461 23.3939 256.567 24.053 256.567 24.8182V25.4489H249.413V24.0625H254.595C254.591 23.6686 254.506 23.3182 254.339 23.0114C254.173 22.7008 253.94 22.4564 253.641 22.2784C253.345 22.1004 253 22.0114 252.607 22.0114C252.186 22.0114 251.817 22.1136 251.499 22.3182C251.18 22.5189 250.932 22.7841 250.754 23.1136C250.58 23.4394 250.491 23.7973 250.487 24.1875V25.3977C250.487 25.9053 250.58 26.3409 250.766 26.7045C250.951 27.0644 251.211 27.3409 251.544 27.5341C251.877 27.7235 252.268 27.8182 252.714 27.8182C253.014 27.8182 253.285 27.7765 253.527 27.6932C253.769 27.6061 253.98 27.4792 254.158 27.3125C254.336 27.1458 254.47 26.9394 254.561 26.6932L256.482 26.9091C256.36 27.4167 256.129 27.8598 255.788 28.2386C255.451 28.6136 255.019 28.9053 254.493 29.1136C253.966 29.3182 253.364 29.4205 252.686 29.4205ZM262.276 29.25V20.5227H264.27V21.9773H264.361C264.52 21.4735 264.793 21.0852 265.179 20.8125C265.569 20.536 266.014 20.3977 266.514 20.3977C266.628 20.3977 266.755 20.4034 266.895 20.4148C267.039 20.4223 267.158 20.4356 267.253 20.4545V22.3466C267.166 22.3163 267.027 22.2898 266.838 22.267C266.652 22.2405 266.473 22.2273 266.298 22.2273C265.923 22.2273 265.586 22.3087 265.287 22.4716C264.991 22.6307 264.759 22.8523 264.588 23.1364C264.418 23.4205 264.332 23.7481 264.332 24.1193V29.25H262.276ZM272.124 29.4205C271.249 29.4205 270.493 29.2386 269.857 28.875C269.224 28.5076 268.737 27.9886 268.396 27.3182C268.055 26.6439 267.885 25.8504 267.885 24.9375C267.885 24.0398 268.055 23.2519 268.396 22.5739C268.741 21.892 269.222 21.3617 269.839 20.983C270.457 20.6004 271.182 20.4091 272.016 20.4091C272.554 20.4091 273.061 20.4962 273.538 20.6705C274.019 20.8409 274.444 21.1061 274.811 21.4659C275.182 21.8258 275.474 22.2841 275.686 22.8409C275.898 23.3939 276.004 24.053 276.004 24.8182V25.4489H268.851V24.0625H274.033C274.029 23.6686 273.944 23.3182 273.777 23.0114C273.61 22.7008 273.377 22.4564 273.078 22.2784C272.783 22.1004 272.438 22.0114 272.044 22.0114C271.624 22.0114 271.254 22.1136 270.936 22.3182C270.618 22.5189 270.37 22.7841 270.192 23.1136C270.018 23.4394 269.929 23.7973 269.925 24.1875V25.3977C269.925 25.9053 270.018 26.3409 270.203 26.7045C270.389 27.0644 270.648 27.3409 270.982 27.5341C271.315 27.7235 271.705 27.8182 272.152 27.8182C272.451 27.8182 272.722 27.7765 272.964 27.6932C273.207 27.6061 273.417 27.4792 273.595 27.3125C273.773 27.1458 273.908 26.9394 273.999 26.6932L275.919 26.9091C275.798 27.4167 275.567 27.8598 275.226 28.2386C274.889 28.6136 274.457 28.9053 273.93 29.1136C273.404 29.3182 272.802 29.4205 272.124 29.4205ZM280.256 29.4261C279.703 29.4261 279.205 29.3277 278.761 29.1307C278.322 28.9299 277.973 28.6345 277.716 28.2443C277.462 27.8542 277.335 27.3731 277.335 26.8011C277.335 26.3087 277.426 25.9015 277.608 25.5795C277.79 25.2576 278.038 25 278.352 24.8068C278.667 24.6136 279.021 24.4678 279.415 24.3693C279.813 24.267 280.223 24.1932 280.648 24.1477C281.159 24.0947 281.574 24.0473 281.892 24.0057C282.21 23.9602 282.441 23.892 282.585 23.8011C282.733 23.7064 282.807 23.5606 282.807 23.3636V23.3295C282.807 22.9015 282.68 22.5701 282.426 22.3352C282.172 22.1004 281.807 21.983 281.33 21.983C280.826 21.983 280.426 22.0928 280.131 22.3125C279.839 22.5322 279.642 22.7917 279.54 23.0909L277.619 22.8182C277.771 22.2879 278.021 21.8447 278.369 21.4886C278.718 21.1288 279.144 20.8598 279.648 20.6818C280.152 20.5 280.708 20.4091 281.318 20.4091C281.739 20.4091 282.157 20.4583 282.574 20.5568C282.991 20.6553 283.371 20.8182 283.716 21.0455C284.061 21.2689 284.337 21.5739 284.545 21.9602C284.758 22.3466 284.864 22.8295 284.864 23.4091V29.25H282.886V28.0511H282.818C282.693 28.2936 282.517 28.5208 282.29 28.733C282.066 28.9413 281.784 29.1098 281.443 29.2386C281.106 29.3636 280.71 29.4261 280.256 29.4261ZM280.79 27.9148C281.203 27.9148 281.561 27.8333 281.864 27.6705C282.167 27.5038 282.4 27.2841 282.562 27.0114C282.729 26.7386 282.812 26.4413 282.812 26.1193V25.0909C282.748 25.1439 282.638 25.1932 282.483 25.2386C282.331 25.2841 282.161 25.3239 281.972 25.358C281.782 25.392 281.595 25.4223 281.409 25.4489C281.223 25.4754 281.063 25.4981 280.926 25.517C280.619 25.5587 280.345 25.6269 280.102 25.7216C279.86 25.8163 279.669 25.9489 279.528 26.1193C279.388 26.286 279.318 26.5019 279.318 26.767C279.318 27.1458 279.456 27.4318 279.733 27.625C280.009 27.8182 280.362 27.9148 280.79 27.9148ZM290.17 29.4034C289.485 29.4034 288.871 29.2273 288.33 28.875C287.788 28.5227 287.36 28.0114 287.045 27.3409C286.731 26.6705 286.574 25.8561 286.574 24.8977C286.574 23.928 286.733 23.1098 287.051 22.4432C287.373 21.7727 287.807 21.267 288.352 20.9261C288.898 20.5814 289.506 20.4091 290.176 20.4091C290.688 20.4091 291.108 20.4962 291.438 20.6705C291.767 20.8409 292.028 21.0473 292.222 21.2898C292.415 21.5284 292.564 21.7538 292.67 21.9659H292.756V17.6136H294.818V29.25H292.795V27.875H292.67C292.564 28.0871 292.411 28.3125 292.21 28.5511C292.009 28.786 291.744 28.9867 291.415 29.1534C291.085 29.3201 290.67 29.4034 290.17 29.4034ZM290.744 27.7159C291.18 27.7159 291.551 27.5985 291.858 27.3636C292.165 27.125 292.398 26.7936 292.557 26.3693C292.716 25.9451 292.795 25.4508 292.795 24.8864C292.795 24.322 292.716 23.8314 292.557 23.4148C292.402 22.9981 292.17 22.6742 291.864 22.4432C291.561 22.2121 291.188 22.0966 290.744 22.0966C290.286 22.0966 289.903 22.2159 289.597 22.4545C289.29 22.6932 289.059 23.0227 288.903 23.4432C288.748 23.8636 288.67 24.3447 288.67 24.8864C288.67 25.4318 288.748 25.9186 288.903 26.3466C289.063 26.7708 289.295 27.1061 289.602 27.3523C289.913 27.5947 290.294 27.7159 290.744 27.7159ZM298.288 32.5227C298.008 32.5227 297.749 32.5 297.51 32.4545C297.275 32.4129 297.088 32.3636 296.947 32.3068L297.425 30.7045C297.724 30.7917 297.991 30.8333 298.226 30.8295C298.461 30.8258 298.667 30.7519 298.845 30.608C299.027 30.4678 299.18 30.233 299.305 29.9034L299.482 29.4318L296.317 20.5227H298.499L300.51 27.1136H300.601L302.618 20.5227H304.805L301.311 30.3068C301.148 30.7689 300.932 31.1648 300.663 31.4943C300.394 31.8277 300.065 32.0814 299.675 32.2557C299.288 32.4337 298.826 32.5227 298.288 32.5227ZM134.477 44.5227V46.1136H129.318V44.5227H134.477ZM130.608 53.25V43.6989C130.608 43.1117 130.729 42.6231 130.972 42.233C131.218 41.8428 131.547 41.5511 131.96 41.358C132.373 41.1648 132.831 41.0682 133.335 41.0682C133.691 41.0682 134.008 41.0966 134.284 41.1534C134.561 41.2102 134.765 41.2614 134.898 41.3068L134.489 42.8977C134.402 42.8712 134.292 42.8447 134.159 42.8182C134.027 42.7879 133.879 42.7727 133.716 42.7727C133.333 42.7727 133.063 42.8655 132.903 43.0511C132.748 43.233 132.67 43.4943 132.67 43.8352V53.25H130.608ZM139.567 53.4205C138.714 53.4205 137.976 53.233 137.351 52.858C136.726 52.483 136.241 51.9583 135.896 51.2841C135.555 50.6098 135.385 49.822 135.385 48.9205C135.385 48.0189 135.555 47.2292 135.896 46.5511C136.241 45.8731 136.726 45.3466 137.351 44.9716C137.976 44.5966 138.714 44.4091 139.567 44.4091C140.419 44.4091 141.158 44.5966 141.783 44.9716C142.408 45.3466 142.891 45.8731 143.232 46.5511C143.576 47.2292 143.749 48.0189 143.749 48.9205C143.749 49.822 143.576 50.6098 143.232 51.2841C142.891 51.9583 142.408 52.483 141.783 52.858C141.158 53.233 140.419 53.4205 139.567 53.4205ZM139.578 51.7727C140.04 51.7727 140.427 51.6458 140.737 51.392C141.048 51.1345 141.279 50.7898 141.43 50.358C141.586 49.9261 141.663 49.4451 141.663 48.9148C141.663 48.3807 141.586 47.8977 141.43 47.4659C141.279 47.0303 141.048 46.6837 140.737 46.4261C140.427 46.1686 140.04 46.0398 139.578 46.0398C139.105 46.0398 138.711 46.1686 138.396 46.4261C138.086 46.6837 137.853 47.0303 137.697 47.4659C137.546 47.8977 137.47 48.3807 137.47 48.9148C137.47 49.4451 137.546 49.9261 137.697 50.358C137.853 50.7898 138.086 51.1345 138.396 51.392C138.711 51.6458 139.105 51.7727 139.578 51.7727ZM145.494 53.25V44.5227H147.489V45.9773H147.58C147.739 45.4735 148.011 45.0852 148.398 44.8125C148.788 44.536 149.233 44.3977 149.733 44.3977C149.847 44.3977 149.973 44.4034 150.114 44.4148C150.258 44.4223 150.377 44.4356 150.472 44.4545V46.3466C150.384 46.3163 150.246 46.2898 150.057 46.267C149.871 46.2405 149.691 46.2273 149.517 46.2273C149.142 46.2273 148.805 46.3087 148.506 46.4716C148.21 46.6307 147.977 46.8523 147.807 47.1364C147.636 47.4205 147.551 47.7481 147.551 48.1193V53.25H145.494ZM155.807 56.5227V44.5227H157.83V45.9659H157.949C158.055 45.7538 158.205 45.5284 158.398 45.2898C158.591 45.0473 158.852 44.8409 159.182 44.6705C159.511 44.4962 159.932 44.4091 160.443 44.4091C161.117 44.4091 161.725 44.5814 162.267 44.9261C162.813 45.267 163.244 45.7727 163.562 46.4432C163.884 47.1098 164.045 47.928 164.045 48.8977C164.045 49.8561 163.888 50.6705 163.574 51.3409C163.259 52.0114 162.831 52.5227 162.29 52.875C161.748 53.2273 161.134 53.4034 160.449 53.4034C159.949 53.4034 159.534 53.3201 159.205 53.1534C158.875 52.9867 158.61 52.786 158.409 52.5511C158.212 52.3125 158.059 52.0871 157.949 51.875H157.864V56.5227H155.807ZM157.824 48.8864C157.824 49.4508 157.903 49.9451 158.062 50.3693C158.225 50.7936 158.458 51.125 158.761 51.3636C159.068 51.5985 159.439 51.7159 159.875 51.7159C160.33 51.7159 160.71 51.5947 161.017 51.3523C161.324 51.1061 161.555 50.7708 161.71 50.3466C161.869 49.9186 161.949 49.4318 161.949 48.8864C161.949 48.3447 161.871 47.8636 161.716 47.4432C161.561 47.0227 161.33 46.6932 161.023 46.4545C160.716 46.2159 160.333 46.0966 159.875 46.0966C159.436 46.0966 159.062 46.2121 158.756 46.4432C158.449 46.6742 158.216 46.9981 158.057 47.4148C157.902 47.8314 157.824 48.322 157.824 48.8864ZM165.807 53.25V44.5227H167.864V53.25H165.807ZM166.841 43.2841C166.515 43.2841 166.235 43.1761 166 42.9602C165.765 42.7405 165.648 42.4773 165.648 42.1705C165.648 41.8598 165.765 41.5966 166 41.3807C166.235 41.161 166.515 41.0511 166.841 41.0511C167.17 41.0511 167.451 41.161 167.682 41.3807C167.917 41.5966 168.034 41.8598 168.034 42.1705C168.034 42.4773 167.917 42.7405 167.682 42.9602C167.451 43.1761 167.17 43.2841 166.841 43.2841ZM173.786 53.4205C172.914 53.4205 172.166 53.2292 171.541 52.8466C170.92 52.464 170.441 51.9356 170.104 51.2614C169.77 50.5833 169.604 49.803 169.604 48.9205C169.604 48.0341 169.774 47.2519 170.115 46.5739C170.456 45.892 170.937 45.3617 171.558 44.983C172.183 44.6004 172.922 44.4091 173.774 44.4091C174.482 44.4091 175.109 44.5398 175.655 44.8011C176.204 45.0587 176.642 45.4242 176.967 45.8977C177.293 46.3674 177.479 46.9167 177.524 47.5455H175.558C175.479 47.125 175.289 46.7746 174.99 46.4943C174.695 46.2102 174.299 46.0682 173.803 46.0682C173.382 46.0682 173.013 46.1818 172.695 46.4091C172.376 46.6326 172.128 46.9545 171.95 47.375C171.776 47.7955 171.689 48.2992 171.689 48.8864C171.689 49.4811 171.776 49.9924 171.95 50.4205C172.125 50.8447 172.369 51.1723 172.683 51.4034C173.001 51.6307 173.375 51.7443 173.803 51.7443C174.106 51.7443 174.376 51.6875 174.615 51.5739C174.857 51.4564 175.06 51.2879 175.223 51.0682C175.386 50.8485 175.498 50.5814 175.558 50.267H177.524C177.475 50.8845 177.293 51.4318 176.979 51.9091C176.664 52.3826 176.236 52.7538 175.695 53.0227C175.153 53.2879 174.517 53.4205 173.786 53.4205ZM181.088 50.5114L181.082 48.0284H181.412L184.548 44.5227H186.952L183.094 48.8182H182.668L181.088 50.5114ZM179.213 53.25V41.6136H181.27V53.25H179.213ZM184.69 53.25L181.849 49.2784L183.236 47.8295L187.151 53.25H184.69ZM197.854 49.5795V44.5227H199.911V53.25H197.916V51.6989H197.825C197.628 52.1875 197.304 52.5871 196.854 52.8977C196.407 53.2083 195.856 53.3636 195.2 53.3636C194.628 53.3636 194.123 53.2367 193.683 52.983C193.248 52.7254 192.907 52.3523 192.661 51.8636C192.414 51.3712 192.291 50.7765 192.291 50.0795V44.5227H194.348V49.7614C194.348 50.3144 194.5 50.7538 194.803 51.0795C195.106 51.4053 195.503 51.5682 195.996 51.5682C196.299 51.5682 196.592 51.4943 196.876 51.3466C197.161 51.1989 197.393 50.9792 197.575 50.6875C197.761 50.392 197.854 50.0227 197.854 49.5795ZM202.026 56.5227V44.5227H204.048V45.9659H204.168C204.274 45.7538 204.423 45.5284 204.616 45.2898C204.81 45.0473 205.071 44.8409 205.401 44.6705C205.73 44.4962 206.151 44.4091 206.662 44.4091C207.336 44.4091 207.944 44.5814 208.486 44.9261C209.031 45.267 209.463 45.7727 209.781 46.4432C210.103 47.1098 210.264 47.928 210.264 48.8977C210.264 49.8561 210.107 50.6705 209.793 51.3409C209.478 52.0114 209.05 52.5227 208.509 52.875C207.967 53.2273 207.353 53.4034 206.668 53.4034C206.168 53.4034 205.753 53.3201 205.423 53.1534C205.094 52.9867 204.829 52.786 204.628 52.5511C204.431 52.3125 204.277 52.0871 204.168 51.875H204.082V56.5227H202.026ZM204.043 48.8864C204.043 49.4508 204.122 49.9451 204.281 50.3693C204.444 50.7936 204.677 51.125 204.98 51.3636C205.287 51.5985 205.658 51.7159 206.094 51.7159C206.548 51.7159 206.929 51.5947 207.236 51.3523C207.543 51.1061 207.774 50.7708 207.929 50.3466C208.088 49.9186 208.168 49.4318 208.168 48.8864C208.168 48.3447 208.09 47.8636 207.935 47.4432C207.779 47.0227 207.548 46.6932 207.241 46.4545C206.935 46.2159 206.552 46.0966 206.094 46.0966C205.654 46.0966 205.281 46.2121 204.974 46.4432C204.668 46.6742 204.435 46.9981 204.276 47.4148C204.12 47.8314 204.043 48.322 204.043 48.8864ZM214.543 41.6136L214.355 49.8295H212.526L212.344 41.6136H214.543ZM213.44 53.375C213.096 53.375 212.8 53.2538 212.554 53.0114C212.312 52.7689 212.19 52.4735 212.19 52.125C212.19 51.7841 212.312 51.4924 212.554 51.25C212.8 51.0076 213.096 50.8864 213.44 50.8864C213.777 50.8864 214.069 51.0076 214.315 51.25C214.565 51.4924 214.69 51.7841 214.69 52.125C214.69 52.3561 214.632 52.5663 214.514 52.7557C214.401 52.9451 214.249 53.0966 214.06 53.2102C213.874 53.3201 213.668 53.375 213.44 53.375Z" fill="#764110"/>
<path d="M239.5 112.25C239.5 104.242 245.992 97.75 254 97.75C262.008 97.75 268.5 104.242 268.5 112.25C268.5 120.258 262.008 126.75 254 126.75C245.992 126.75 239.5 120.258 239.5 112.25Z" fill="#E82222"/>
<path d="M239.5 112.25C239.5 104.242 245.992 97.75 254 97.75C262.008 97.75 268.5 104.242 268.5 112.25C268.5 120.258 262.008 126.75 254 126.75C245.992 126.75 239.5 120.258 239.5 112.25Z" stroke="white" stroke-width="3"/>
<path d="M253.999 118.409C253.181 118.409 252.454 118.269 251.817 117.989C251.185 117.708 250.685 117.318 250.317 116.818C249.95 116.318 249.755 115.741 249.732 115.085H251.869C251.888 115.4 251.992 115.674 252.181 115.909C252.371 116.14 252.622 116.32 252.937 116.449C253.251 116.578 253.603 116.642 253.994 116.642C254.41 116.642 254.78 116.57 255.102 116.426C255.424 116.278 255.675 116.074 255.857 115.812C256.039 115.551 256.128 115.25 256.124 114.909C256.128 114.557 256.037 114.246 255.852 113.977C255.666 113.708 255.397 113.498 255.045 113.347C254.696 113.195 254.276 113.119 253.783 113.119H252.755V111.494H253.783C254.189 111.494 254.543 111.424 254.846 111.284C255.153 111.144 255.393 110.947 255.567 110.693C255.742 110.436 255.827 110.138 255.823 109.801C255.827 109.472 255.753 109.186 255.602 108.943C255.454 108.697 255.244 108.506 254.971 108.369C254.702 108.233 254.386 108.165 254.022 108.165C253.666 108.165 253.336 108.229 253.033 108.358C252.73 108.487 252.486 108.67 252.3 108.909C252.115 109.144 252.016 109.424 252.005 109.75H249.977C249.992 109.098 250.179 108.527 250.539 108.034C250.903 107.538 251.388 107.152 251.994 106.875C252.6 106.595 253.28 106.455 254.033 106.455C254.81 106.455 255.484 106.6 256.056 106.892C256.632 107.18 257.077 107.568 257.391 108.057C257.706 108.545 257.863 109.085 257.863 109.676C257.867 110.331 257.674 110.881 257.283 111.324C256.897 111.767 256.389 112.057 255.761 112.193V112.284C256.579 112.398 257.206 112.701 257.641 113.193C258.081 113.682 258.299 114.29 258.295 115.017C258.295 115.669 258.109 116.252 257.738 116.767C257.371 117.278 256.863 117.68 256.215 117.972C255.571 118.263 254.833 118.409 253.999 118.409Z" fill="white"/>
</svg>
