<svg width="268" height="375" viewBox="0 0 268 375" fill="none" xmlns="http://www.w3.org/2000/svg">
<ellipse opacity="0.1" cx="132.5" cy="353" rx="132.5" ry="22" fill="black"/>
<path d="M98.0383 116C107.288 108.774 111.939 90.0748 112.515 85L148.038 87.5C147.638 95.5 156.538 109.833 161.038 116C179.038 134.8 179.872 176.5 178.038 195H80.0383C72.5383 157.5 87.5383 125.5 98.0383 116Z" fill="#F1A672"/>
<path d="M95.5504 4.70791C115.357 15.6554 125.95 22.28 125.148 52.8263L95.5504 4.70791Z" fill="#F1A672"/>
<path d="M95.5504 4.70791C96.3879 27.3234 97.5229 39.7656 125.148 52.8263L95.5504 4.70791Z" fill="#F1A672"/>
<path d="M166.365 4.70791C146.558 15.6554 135.965 22.28 136.768 52.8263L166.365 4.70791Z" fill="#F1A672"/>
<path d="M166.365 4.70791C165.528 27.3234 164.393 39.7656 136.768 52.8263L166.365 4.70791Z" fill="#F1A672"/>
<path d="M103.312 16.2457C115.258 23.0461 121.649 27.1566 121.271 45.9408L103.312 16.2457Z" fill="#D9D9D9"/>
<path d="M103.312 16.2457C103.892 30.1578 104.617 37.814 121.271 45.9408L103.312 16.2457Z" fill="#D9D9D9"/>
<path d="M158.603 16.2457C146.657 23.0461 140.266 27.1566 140.644 45.9408L158.603 16.2457Z" fill="#D9D9D9"/>
<path d="M158.603 16.2457C158.023 30.1578 157.298 37.814 140.644 45.9408L158.603 16.2457Z" fill="#D9D9D9"/>
<ellipse cx="131.015" cy="66.5" rx="25" ry="27.5" fill="#F2C496"/>
<path fill-rule="evenodd" clip-rule="evenodd" d="M134.955 39.2908C147.999 41.2335 158.015 52.6754 158.015 66.5C158.015 76.0056 153.28 84.3847 146.081 89.324C137.475 86.3202 131.015 73.6609 131.015 58.5C131.015 51.2692 132.484 44.6074 134.955 39.2908Z" fill="#E79156"/>
<ellipse cx="131.015" cy="56.5" rx="22" ry="17.5" fill="#F1A672"/>
<ellipse cx="130.538" cy="84" rx="10.5" ry="10" fill="#F1A672"/>
<path fill-rule="evenodd" clip-rule="evenodd" d="M121.577 72.3124C114.149 69.5023 109.015 63.4781 109.015 56.5C109.015 55.4404 109.133 54.4027 109.36 53.395C114.097 52.9119 122.509 53.7249 124.015 60.5L122.515 72.5L121.577 72.3124Z" fill="#F5995C"/>
<path d="M125.038 57.5L120.038 83.5H141.038L135.038 57.5H125.038Z" fill="#F1A672"/>
<path d="M113.015 61.3956C114.393 60.5688 117.816 59.4163 120.472 61.4211C119.285 59.4162 116.13 56.6042 113.015 61.3956Z" fill="black" stroke="black" stroke-linejoin="round"/>
<path d="M140.015 61.3956C141.393 60.5688 144.816 59.4163 147.472 61.4211C146.285 59.4162 143.13 56.6042 140.015 61.3956Z" fill="black" stroke="black" stroke-linejoin="round"/>
<ellipse cx="130.538" cy="85.5" rx="10.5" ry="8.5" fill="#D9D9D9"/>
<path d="M26.5146 346L98.0146 328.5C78.0146 298.9 74.348 262.5 75.0146 248L118.015 261L120.515 334L42.0146 354C40.348 355.5 35.5146 358.8 29.5146 360C23.5146 361.2 17.348 356.5 15.0146 354C14.6146 350 22.5146 347 26.5146 346Z" fill="#F1A672"/>
<path fill-rule="evenodd" clip-rule="evenodd" d="M87.2406 331.137L26.5146 346C22.5146 347 14.6146 350 15.0146 354C17.348 356.5 23.5146 361.2 29.5146 360C35.5146 358.8 40.348 355.5 42.0146 354L89.5352 341.893C89.1255 338.394 88.4079 334.532 87.2406 331.137Z" fill="url(#paint0_linear_505_4899)"/>
<path d="M230 346L158.5 328.5C178.5 298.9 182.167 262.5 181.5 248L138.5 261L136 334L214.5 354C216.167 355.5 221 358.8 227 360C233 361.2 239.167 356.5 241.5 354C241.9 350 234 347 230 346Z" fill="#F1A672"/>
<path fill-rule="evenodd" clip-rule="evenodd" d="M169.274 331.137L230 346C234 347 241.9 350 241.5 354C239.167 356.5 233 361.2 227 360C221 358.8 216.167 355.5 214.5 354L166.979 341.893C167.389 338.394 168.107 334.532 169.274 331.137Z" fill="url(#paint1_linear_505_4899)"/>
<path d="M75 248.5C78.0155 241.06 80.9683 200.174 80 194.5H178C177.01 215.815 177.603 227.606 181 248.5C168.5 252 167.5 253.5 147 259C145 273.5 145 292.5 128.5 292.5C112 292.5 100.5 256 100.5 256C100.5 256 80.8333 249.833 75 248.5Z" fill="#F1A672"/>
<path d="M131.571 85.2637C131.037 85.6675 130.299 85.6675 129.764 85.2637L123.952 80.8758C123.116 80.2446 123.168 78.9675 124.081 78.454C128.601 75.9125 131.937 75.5492 137.246 78.4649C138.165 78.9694 138.218 80.2453 137.382 80.8768L131.571 85.2637Z" fill="#252525"/>
<path d="M90.5146 196C89.848 174.833 95.0146 126.6 117.015 123C120.181 121.5 127.015 104 119.515 90.5L140.515 92C136.015 101.5 137.015 121.056 142.515 123.5C151.515 127.5 165.015 133.5 167.015 196L169 220.5C165.667 232.333 153 256 129 256C98.9999 256 84.9999 228.5 86.4999 222C87.6999 216.8 89.6764 202.5 90.5146 196Z" fill="#F2C496"/>
<path d="M92.0144 185.5C86.0144 177.095 88.0143 146.526 88.0143 130.573C97.2143 124.036 101.848 131.512 103.514 135.792C103.659 153.845 103.728 163.95 101.514 179C105.128 181.251 108.287 185.973 121.014 201L117.014 205.5C103.963 195.897 100.428 193.959 92.0144 185.5Z" fill="#F5995C"/>
<path d="M131.104 89.4166C130.77 89.191 130.321 89.2555 130.027 89.531C129.37 90.1456 128.573 90.535 127.576 90.7495C126.782 90.9204 126.519 92.0985 127.286 92.3648C129.665 93.1905 131.699 93.2538 134.195 92.3025C134.933 92.0215 134.659 90.9124 133.892 90.7262C132.95 90.4974 132.089 90.0816 131.104 89.4166Z" fill="#252525"/>
<path d="M132.515 209.5C132.515 213.09 130.657 215.5 126.515 215.5C122.373 215.5 115.515 208.59 115.515 205C118.515 205 119.515 202 120.515 200C125.015 199 132.515 205.91 132.515 209.5Z" fill="#2F2F2F"/>
<path d="M214.651 140.368C205.711 145.537 186.88 146.526 171 145C165.373 135.217 161.851 125.415 166.271 124.165C184.255 125.749 194.32 126.646 209.09 130.29C211.676 126.908 216.679 124.216 232.854 112.984L236.951 117.396C226.143 129.469 223.876 132.802 214.651 140.368Z" fill="#F5995C"/>
<path fill-rule="evenodd" clip-rule="evenodd" d="M245.207 132.068L242.472 124.182L242.519 124.166L232.204 92.3776L232.388 92.344L231.557 89.784L233.222 89.2477L234.912 90.0493L235.24 91.0712L234.824 91.8992L234.824 91.8992C234.799 93.7592 235.455 95.6618 238.389 101.289L238.428 101.362C238.67 101.824 238.899 102.262 239.054 103.23C239.242 108.03 239.953 109.917 243.388 119.038L243.388 119.038C243.872 120.325 244.411 121.755 245.01 123.358L245.051 123.345C245.098 123.495 245.143 123.641 245.187 123.783C245.857 125.939 246.272 127.275 248.297 128.425C248.717 128.793 248.701 129.074 248.604 129.596L248.345 130.649C248.28 130.914 248.084 131.128 247.825 131.216L247.626 131.283L245.207 132.068Z" fill="#9C4C4C"/>
<path fill-rule="evenodd" clip-rule="evenodd" d="M245.21 132.067L242.634 124.129L242.63 124.131L232.426 92.2531L232.399 92.267L231.59 89.7735L229.927 90.3174L229.03 91.9586L229.365 92.9781L230.187 93.4041L230.187 93.4041C231.3 94.895 231.886 96.8201 232.815 103.098L232.827 103.18C232.902 103.696 232.974 104.185 233.416 105.06C236.082 109.056 236.615 111 239.191 120.4L239.191 120.401C239.554 121.726 239.958 123.201 240.414 124.85L240.374 124.863C240.423 125.012 240.472 125.156 240.52 125.298C241.244 127.437 241.693 128.762 240.728 130.881C240.605 131.426 240.783 131.644 241.167 132.009L241.996 132.71C242.204 132.886 242.488 132.944 242.749 132.863L242.949 132.801L245.21 132.067Z" fill="#9C4C4C"/>
<rect width="4.99311" height="1.61249" transform="matrix(0.308659 0.951173 0.951173 -0.308659 229.409 85.3186)" fill="#3A3A3A"/>
<rect width="8.26025" height="4.8" rx="0.8" transform="matrix(0.308659 0.951173 0.951173 -0.308659 225.145 77.8296)" fill="#7A7A7A"/>
<rect width="0.990745" height="3.29091" rx="0.4" transform="matrix(0.308659 0.951173 0.951173 -0.308659 228.406 85.3892)" fill="#7A7A7A"/>
<rect width="0.990745" height="3.29091" rx="0.4" transform="matrix(0.308659 0.951173 0.951173 -0.308659 225.587 76.7045)" fill="#7A7A7A"/>
<path d="M246 111C246 107.41 244.142 105 240 105C235.858 105 229 111.91 229 115.5C232 115.5 233 118.5 234 120.5C238.5 121.5 246 114.59 246 111Z" fill="#2F2F2F"/>
<defs>
<linearGradient id="paint0_linear_505_4899" x1="28" y1="353.807" x2="92.5" y2="337.307" gradientUnits="userSpaceOnUse">
<stop offset="0.37" stop-color="#2F2F2F"/>
<stop offset="0.885" stop-color="#F1A672"/>
</linearGradient>
<linearGradient id="paint1_linear_505_4899" x1="228.515" y1="353.807" x2="164.015" y2="337.307" gradientUnits="userSpaceOnUse">
<stop offset="0.37" stop-color="#2F2F2F"/>
<stop offset="0.885" stop-color="#F1A672"/>
</linearGradient>
</defs>
</svg>
