<svg width="59" height="32" viewBox="0 0 59 32" fill="none" xmlns="http://www.w3.org/2000/svg">
<path d="M16.9309 12.8962C3.4405 12.8962 0.905394 4.47601 0 0.0395759C0 -0.177719 0.362158 0.552633 0.543237 0.94497C1.70214 3.33521 3.50086 5.3814 4.25535 6.10572C8.9634 10.9586 15.9349 10.6629 18.8322 9.90837C26.2202 7.30084 31.9906 6.22644 33.9523 6.01518C39.0949 5.94275 41.3765 7.64489 43.0968 9.45568C44.817 11.0854 46.3381 11.4294 47.3521 11.7192C48.3662 12.0089 49.6458 11.8399 50.1589 11.7192C50.2494 11.6286 50.2313 11.2121 49.4345 10.2705C48.6378 9.32892 49.2233 8.671 49.6156 8.45974C49.5251 8.00705 49.2716 7.08354 48.9818 7.01111C48.6921 6.93868 48.7404 6.79985 48.8008 6.73949C50.7021 6.46788 52.5129 8.45974 52.694 8.45974C52.875 8.45974 52.7845 7.82597 52.694 7.55435C52.6215 7.33705 52.7241 7.28273 52.7845 7.28273C55.6093 9.09352 55.2291 11.2966 54.6858 12.1719C55.7723 12.3892 55.8628 13.3489 55.7723 13.8016C55.9172 14.381 57.3416 15.3709 58.0358 15.7934C57.9633 16.3005 57.2813 16.6687 56.9493 16.7894C55.3558 17.3688 53.5088 16.6687 52.7845 16.2461C40.1995 15.9745 36.3063 17.061 36.0347 20.5015C35.8174 23.2539 43.308 27.7446 47.0805 29.646C50.847 29.7184 53.3579 31.2455 54.1426 32H42.3725C35.424 19.8671 20.8345 13.092 16.9309 12.8962Z" fill="white"/>
</svg>
