<svg width="48" height="48" viewBox="0 0 48 48" fill="none" xmlns="http://www.w3.org/2000/svg">
<path d="M15.6693 21.8607C6.37129 21.8607 4.62402 16.0573 4 12.9996C4 12.8498 4.24961 13.3532 4.37441 13.6236C5.17317 15.271 6.4129 16.6813 6.93292 17.1805C10.1778 20.5253 14.9828 20.3215 16.9797 19.8014C22.0718 18.0042 26.0489 17.2637 27.4009 17.1181C30.9454 17.0682 32.5179 18.2414 33.7036 19.4894C34.8892 20.6127 35.9376 20.8498 36.6365 21.0495C37.3354 21.2492 38.2174 21.1327 38.571 21.0495C38.6334 20.9871 38.6209 20.7 38.0718 20.051C37.5226 19.4021 37.9262 18.9486 38.1966 18.803C38.1342 18.491 37.9594 17.8545 37.7598 17.8046C37.5601 17.7546 37.5933 17.659 37.6349 17.6174C38.9454 17.4301 40.1934 18.803 40.3183 18.803C40.4431 18.803 40.3807 18.3662 40.3183 18.179C40.2683 18.0292 40.3391 17.9918 40.3807 17.9918C42.3276 19.2398 42.0655 20.7583 41.6911 21.3615C42.4399 21.5113 42.5023 22.1727 42.4399 22.4847C42.5398 22.8841 43.5216 23.5664 44 23.8576C43.9501 24.2071 43.48 24.4608 43.2512 24.544C42.1529 24.9434 40.8799 24.4608 40.3807 24.1696C31.7067 23.9824 29.0234 24.7312 28.8362 27.1025C28.6864 28.9996 33.8492 32.0947 36.4493 33.4052C39.0452 33.4551 40.7759 34.5076 41.3167 35.0276H33.2044C28.4153 26.6653 18.3598 21.9957 15.6693 21.8607Z" fill="#91C03E"/>
</svg>
