<svg width="158" height="40" viewBox="0 0 158 40" fill="none" xmlns="http://www.w3.org/2000/svg">
<path d="M21.8744 6.30248C23.2562 4.63124 24.1825 2.31062 23.9287 0C21.9425 0.0731248 19.5369 1.32187 18.1144 2.99062C16.8369 4.46811 15.7162 6.83123 16.02 9.09435C18.2331 9.26623 20.4987 7.96873 21.8744 6.30248ZM32.1444 28.9562C32.0956 29.0955 31.3144 31.788 29.41 34.5705C27.7656 36.9762 26.0575 39.3736 23.3662 39.4224C20.7231 39.4724 19.8725 37.8543 16.8525 37.8543C13.8287 37.8543 12.8837 39.3736 10.385 39.4724C7.78873 39.5705 5.80873 36.8712 4.15248 34.4749C0.759976 29.573 -1.82753 20.6237 1.65248 14.5875C3.3756 11.5856 6.46561 9.68622 9.81748 9.63747C12.37 9.58997 14.7737 11.3512 16.3337 11.3512C17.8912 11.3512 20.815 9.23123 23.8887 9.54247C25.175 9.59747 28.7887 10.06 31.1087 13.4568C30.925 13.5743 26.7975 15.9756 26.8425 20.9681C26.8962 26.9443 32.0831 28.9318 32.1444 28.9562Z" fill="black"/>
<path d="M46.1431 16.2532H49.5356L47.8631 11.327H47.8156L46.1431 16.2532ZM49.9794 17.6538H45.6994L44.6719 20.6888H42.8594L46.9131 9.45947H48.7969L52.8506 20.6888H51.0069L49.9794 17.6538Z" fill="black"/>
<path d="M60.8961 20.6883H59.2849V19.2802H59.2468C58.7793 20.2602 57.9624 20.7821 56.7093 20.7821C54.9268 20.7821 53.838 19.6302 53.838 17.7546V12.5015H55.5193V17.4277C55.5193 18.6727 56.1099 19.3346 57.2693 19.3346C58.4836 19.3346 59.2155 18.4939 59.2155 17.2177V12.5015H60.8961V20.6883Z" fill="black"/>
<path d="M64.9724 10.5645V12.5019H66.5286V13.8332H64.9724V18.3469C64.9724 19.0469 65.2836 19.3738 65.9686 19.3738C66.1399 19.3738 66.4124 19.3507 66.5218 19.3351V20.6576C66.3349 20.7044 65.9611 20.7357 65.5874 20.7357C63.9299 20.7357 63.2843 20.1132 63.2843 18.5257V13.8332H62.093V12.5019H63.2843V10.5645H64.9724Z" fill="black"/>
<path d="M68.2081 9.45947H69.8738V13.8951H69.9125C70.4031 12.9145 71.2506 12.4088 72.5038 12.4088C74.3013 12.4088 75.3756 13.6076 75.3756 15.4595V20.6888H73.6863V15.7945C73.6863 14.5876 73.08 13.8563 71.8969 13.8563C70.6519 13.8563 69.8888 14.7126 69.8888 16.012V20.6888H68.2081V9.45947Z" fill="black"/>
<path d="M82.923 16.5957C82.923 14.8295 82.1137 13.7864 80.7505 13.7864C79.3893 13.7864 78.5805 14.837 78.5805 16.5957C78.5805 18.3701 79.3893 19.4051 80.7505 19.4051C82.1137 19.4051 82.923 18.3701 82.923 16.5957ZM76.868 16.5957C76.868 14.0201 78.3855 12.4014 80.7505 12.4014C83.1249 12.4014 84.6343 14.0201 84.6343 16.5957C84.6343 19.1795 83.1331 20.7901 80.7505 20.7901C78.3705 20.7901 76.868 19.1795 76.868 16.5957Z" fill="black"/>
<path d="M86.1737 12.5016H87.7768V13.8948H87.8156C88.0725 12.9691 88.8193 12.416 89.7843 12.416C90.0262 12.416 90.2281 12.4473 90.3606 12.4785V14.051C90.2281 13.996 89.9325 13.9491 89.6056 13.9491C88.5243 13.9491 87.8543 14.681 87.8543 15.8329V20.6885H86.1737V12.5016Z" fill="black"/>
<path d="M91.6974 12.5013H93.378V20.6882H91.6974V12.5013ZM91.5656 10.3463C91.5656 9.80885 92.0012 9.38135 92.5387 9.38135C93.083 9.38135 93.5187 9.80885 93.5187 10.3463C93.5187 10.8751 93.083 11.3032 92.5387 11.3032C92.0012 11.3032 91.5656 10.8751 91.5656 10.3463Z" fill="black"/>
<path d="M95.1667 19.6064L99.5318 13.8715V13.8402H95.1974V12.5015H101.462V13.6533L97.2049 19.3189V19.3502H101.509V20.6883H95.1667V19.6064Z" fill="black"/>
<path d="M104.332 15.8407H108.425C108.386 14.5876 107.585 13.7632 106.417 13.7632C105.258 13.7632 104.417 14.6032 104.332 15.8407ZM110.013 18.2845C109.787 19.7707 108.339 20.7901 106.487 20.7901C104.106 20.7901 102.627 19.1945 102.627 16.6345C102.627 14.0664 104.114 12.4014 106.417 12.4014C108.682 12.4014 110.106 13.9576 110.106 16.4401V17.0157H104.324V17.117C104.324 18.5176 105.203 19.4363 106.526 19.4363C107.461 19.4363 108.191 18.9926 108.417 18.2845H110.013Z" fill="black"/>
<path d="M113 16.5957C113 18.2763 113.856 19.3507 115.163 19.3507C116.455 19.3507 117.319 18.2607 117.319 16.5957C117.319 14.9457 116.455 13.8482 115.163 13.8482C113.856 13.8482 113 14.9301 113 16.5957ZM111.28 16.5957C111.28 14.0663 112.673 12.4163 114.704 12.4163C115.879 12.4163 116.805 12.9613 117.273 13.8645H117.303V9.45947H118.992V20.6888H117.358V19.2957H117.327C116.844 20.2294 115.91 20.7744 114.72 20.7744C112.673 20.7744 111.28 19.1251 111.28 16.5957Z" fill="black"/>
<path d="M44.9136 36.3104C45.038 37.4235 46.1199 38.1548 47.598 38.1548C49.0142 38.1548 50.0336 37.4235 50.0336 36.4198C50.0336 35.5479 49.4192 35.0267 47.9642 34.6686L46.5086 34.3179C44.4461 33.8198 43.4892 32.8554 43.4892 31.2911C43.4892 29.3536 45.178 28.0229 47.5749 28.0229C49.9486 28.0229 51.5749 29.3536 51.6292 31.2911H49.9324C49.8317 30.1704 48.9055 29.4936 47.5517 29.4936C46.1974 29.4936 45.2711 30.1786 45.2711 31.1748C45.2711 31.9679 45.8624 32.4354 47.3099 32.7936L48.5474 33.0967C50.8511 33.6411 51.808 34.5673 51.808 36.2098C51.808 38.3104 50.1349 39.6254 47.4736 39.6254C44.983 39.6254 43.3024 38.3417 43.1936 36.3104H44.9136Z" fill="black"/>
<path d="M54.6681 34.5918H58.7619C58.7231 33.3387 57.9212 32.5137 56.7537 32.5137C55.595 32.5137 54.7537 33.3543 54.6681 34.5918ZM60.3494 37.035C60.1237 38.5218 58.6756 39.5412 56.8244 39.5412C54.4425 39.5412 52.9644 37.9456 52.9644 35.385C52.9644 32.8175 54.4506 31.1519 56.7537 31.1519C59.0187 31.1519 60.4431 32.7081 60.4431 35.1906V35.7668H54.6612V35.8681C54.6612 37.2687 55.54 38.1868 56.8631 38.1868C57.7969 38.1868 58.5281 37.7431 58.7537 37.035H60.3494Z" fill="black"/>
<path d="M61.9818 31.2521H63.5856V32.6446H63.6249C63.8812 31.719 64.6281 31.1665 65.5931 31.1665C65.8343 31.1665 66.0368 31.1978 66.1693 31.229V32.8009C66.0368 32.7465 65.7418 32.699 65.4143 32.699C64.3331 32.699 63.6631 33.4309 63.6631 34.5827V39.439H61.9818V31.2521Z" fill="black"/>
<path d="M71.6174 39.4393H69.8118L66.8624 31.2524H68.6524L70.7068 37.7974H70.7381L72.7924 31.2524H74.5512L71.6174 39.4393Z" fill="black"/>
<path d="M75.8099 31.252H77.4905V39.4388H75.8099V31.252ZM75.678 29.0963C75.678 28.5595 76.1136 28.1313 76.6511 28.1313C77.1955 28.1313 77.6311 28.5595 77.6311 29.0963C77.6311 29.6251 77.1955 30.0538 76.6511 30.0538C76.1136 30.0538 75.678 29.6251 75.678 29.0963Z" fill="black"/>
<path d="M84.7949 34.07C84.6474 33.2062 83.9705 32.5606 82.8649 32.5606C81.573 32.5606 80.7168 33.6418 80.7168 35.3468C80.7168 37.09 81.5805 38.14 82.8799 38.14C83.923 38.14 84.608 37.6187 84.7949 36.6693H86.4136C86.2268 38.3893 84.8493 39.5412 82.8649 39.5412C80.5305 39.5412 79.0049 37.9456 79.0049 35.3468C79.0049 32.8018 80.5305 31.1519 82.8499 31.1519C84.9505 31.1519 86.258 32.475 86.398 34.07H84.7949Z" fill="black"/>
<path d="M89.1819 34.5918H93.2757C93.2369 33.3387 92.4357 32.5137 91.2675 32.5137C90.1082 32.5137 89.2681 33.3543 89.1819 34.5918ZM94.8632 37.035C94.6375 38.5218 93.1907 39.5412 91.3382 39.5412C88.9569 39.5412 87.4781 37.9456 87.4781 35.385C87.4781 32.8175 88.9644 31.1519 91.2675 31.1519C93.5319 31.1519 94.9569 32.7081 94.9569 35.1906V35.7668H89.1744V35.8681C89.1744 37.2687 90.0538 38.1868 91.3769 38.1868C92.3107 38.1868 93.0419 37.7431 93.2682 37.035H94.8632Z" fill="black"/>
<path d="M101.91 34.1383H103.91C105.428 34.1383 106.291 33.3208 106.291 31.9052C106.291 30.489 105.428 29.6796 103.918 29.6796H101.91V34.1383ZM104.377 28.209C106.555 28.209 108.074 29.7102 108.074 31.8971C108.074 34.0921 106.525 35.6015 104.322 35.6015H101.91V39.4383H100.167V28.209H104.377Z" fill="black"/>
<path d="M109.509 31.2521H111.112V32.6446H111.151C111.407 31.719 112.154 31.1665 113.119 31.1665C113.361 31.1665 113.563 31.1978 113.696 31.229V32.8009C113.563 32.7465 113.267 32.699 112.941 32.699C111.859 32.699 111.189 33.4309 111.189 34.5827V39.439H109.509V31.2521Z" fill="black"/>
<path d="M120.317 35.3468C120.317 33.58 119.507 32.5375 118.145 32.5375C116.784 32.5375 115.974 33.5875 115.974 35.3468C115.974 37.1206 116.784 38.1556 118.145 38.1556C119.507 38.1556 120.317 37.1206 120.317 35.3468ZM114.262 35.3468C114.262 32.7706 115.779 31.1519 118.145 31.1519C120.519 31.1519 122.028 32.7706 122.028 35.3468C122.028 37.93 120.527 39.5412 118.145 39.5412C115.764 39.5412 114.262 37.93 114.262 35.3468Z" fill="black"/>
<path d="M127.404 39.4393H125.599L122.649 31.2524H124.439L126.494 37.7974H126.524L128.579 31.2524H130.338L127.404 39.4393Z" fill="black"/>
<path d="M131.597 31.252H133.278V39.4388H131.597V31.252ZM131.466 29.0963C131.466 28.5595 131.901 28.1313 132.438 28.1313C132.982 28.1313 133.419 28.5595 133.419 29.0963C133.419 29.6251 132.982 30.0538 132.438 30.0538C131.901 30.0538 131.466 29.6251 131.466 29.0963Z" fill="black"/>
<path d="M136.592 35.3452C136.592 37.0258 137.447 38.0996 138.755 38.0996C140.047 38.0996 140.911 37.0102 140.911 35.3452C140.911 33.6946 140.047 32.5977 138.755 32.5977C137.447 32.5977 136.592 33.6796 136.592 35.3452ZM134.872 35.3452C134.872 32.8158 136.264 31.1659 138.296 31.1659C139.471 31.1659 140.397 31.7102 140.864 32.6133H140.896V28.209H142.584V39.4383H140.95V38.0452H140.919C140.436 38.979 139.502 39.5233 138.311 39.5233C136.264 39.5233 134.872 37.874 134.872 35.3452Z" fill="black"/>
<path d="M145.881 34.5918H149.975C149.935 33.3387 149.134 32.5137 147.967 32.5137C146.807 32.5137 145.967 33.3543 145.881 34.5918ZM151.562 37.035C151.337 38.5218 149.889 39.5412 148.037 39.5412C145.656 39.5412 144.177 37.9456 144.177 35.385C144.177 32.8175 145.664 31.1519 147.967 31.1519C150.231 31.1519 151.655 32.7081 151.655 35.1906V35.7668H145.873V35.8681C145.873 37.2687 146.753 38.1868 148.076 38.1868C149.01 38.1868 149.741 37.7431 149.967 37.035H151.562Z" fill="black"/>
<path d="M153.099 31.2521H154.702V32.6446H154.742C154.998 31.719 155.745 31.1665 156.71 31.1665C156.951 31.1665 157.154 31.1978 157.286 31.229V32.8009C157.154 32.7465 156.859 32.699 156.531 32.699C155.45 32.699 154.78 33.4309 154.78 34.5827V39.439H153.099V31.2521Z" fill="black"/>
</svg>
