<svg width="70" height="50" viewBox="0 0 70 50" fill="none" xmlns="http://www.w3.org/2000/svg">
<g clip-path="url(#clip0_753_2729)">
<path fill-rule="evenodd" clip-rule="evenodd" d="M54.8054 32.8778C54.0077 33.8842 52.0533 34.6022 52.0533 34.6022L37.5145 39.8244V35.9731L48.214 32.1608C49.4282 31.7258 49.6147 31.1108 48.6277 30.788C47.6427 30.4643 45.8589 30.557 44.6438 30.9939L37.5145 33.5048V29.5079L37.9254 29.3688C37.9254 29.3688 39.9855 28.6397 42.8824 28.3188C45.7792 27.9997 49.3262 28.3624 52.1108 29.4179C55.2488 30.4095 55.6022 31.8714 54.8054 32.8778ZM38.8984 26.3199V16.4709C38.8984 15.3142 38.6851 14.2493 37.5998 13.9479C36.7687 13.6817 36.253 14.4534 36.253 15.6092V40.2733L29.6014 38.1622V8.75439C32.4295 9.2794 36.5498 10.5205 38.7649 11.2672C44.398 13.2012 46.3079 15.6082 46.3079 21.0318C46.3079 26.318 43.0447 28.3216 38.8984 26.3199ZM17.3963 35.5705C14.1749 34.6634 13.6387 32.773 15.1071 31.684C16.4641 30.6785 18.7719 29.9216 18.7719 29.9216L28.3092 26.5304V30.3965L21.4461 32.8528C20.2338 33.2878 20.0473 33.9037 21.0324 34.2265C22.0184 34.5493 23.8031 34.4575 25.0173 34.0215L28.3092 32.8268V36.2857C28.1005 36.3228 27.8677 36.3599 27.6525 36.3961C24.3596 36.9341 20.8525 36.7096 17.3963 35.5705Z" fill="#1F2A37"/>
</g>
<defs>
<clipPath id="clip0_753_2729">
<rect width="41.25" height="31.9314" fill="white" transform="translate(14.125 8.54834)"/>
</clipPath>
</defs>
</svg>
