<svg width="70" height="50" viewBox="0 0 70 50" fill="none" xmlns="http://www.w3.org/2000/svg">
<g opacity="0.5">
<path fill-rule="evenodd" clip-rule="evenodd" d="M17.25 12H51.5L51.4966 12.0094C51.6637 12.0031 51.8315 12 52 12C59.3178 12 65.25 17.9322 65.25 25.25C65.25 32.5678 59.3178 38.5 52 38.5C48.539 38.5 45.3878 37.173 43.0277 35H26.2223C23.8622 37.173 20.711 38.5 17.25 38.5C9.93223 38.5 4 32.5678 4 25.25C4 17.9739 9.86491 12.0676 17.1252 12.0006L17.125 12H17.25Z" fill="white"/>
<path d="M51.5 12L52.0883 12.2109L52.388 11.375H51.5V12ZM51.4966 12.0094L50.9083 11.7985L50.5964 12.6684L51.52 12.6339L51.4966 12.0094ZM43.0277 35L43.4511 34.5402L43.2716 34.375H43.0277V35ZM26.2223 35V34.375H25.9784L25.7989 34.5402L26.2223 35ZM17.1252 12.0006L17.131 12.6255L18.0376 12.6172L17.7073 11.7729L17.1252 12.0006ZM17.125 12V11.375H16.2094L16.543 12.2277L17.125 12ZM17.25 12.625H51.5V11.375H17.25V12.625ZM50.9117 11.7891L50.9083 11.7985L52.085 12.2203L52.0883 12.2109L50.9117 11.7891ZM51.52 12.6339C51.6792 12.628 51.8392 12.625 52 12.625V11.375C51.8237 11.375 51.6481 11.3783 51.4733 11.3848L51.52 12.6339ZM52 12.625C58.9726 12.625 64.625 18.2774 64.625 25.25H65.875C65.875 17.587 59.6629 11.375 52 11.375V12.625ZM64.625 25.25C64.625 32.2226 58.9726 37.875 52 37.875V39.125C59.6629 39.125 65.875 32.913 65.875 25.25H64.625ZM52 37.875C48.7019 37.875 45.7003 36.6111 43.4511 34.5402L42.6044 35.4598C45.0753 37.7348 48.376 39.125 52 39.125V37.875ZM43.0277 34.375H26.2223V35.625H43.0277V34.375ZM25.7989 34.5402C23.5497 36.6111 20.5481 37.875 17.25 37.875V39.125C20.874 39.125 24.1747 37.7348 26.6456 35.4598L25.7989 34.5402ZM17.25 37.875C10.2774 37.875 4.625 32.2226 4.625 25.25H3.375C3.375 32.913 9.58705 39.125 17.25 39.125V37.875ZM4.625 25.25C4.625 18.3171 10.2133 12.6894 17.131 12.6255L17.1195 11.3756C9.51655 11.4457 3.375 17.6306 3.375 25.25H4.625ZM17.7073 11.7729L17.707 11.7723L16.543 12.2277L16.5432 12.2283L17.7073 11.7729ZM17.125 12.625H17.25V11.375H17.125V12.625Z" fill="#545454"/>
</g>
<circle cx="52" cy="25.25" r="10.625" stroke="#8F8F8F" stroke-width="0.75"/>
<g opacity="0.5">
<rect x="42" y="23.3662" width="14" height="6" rx="3" transform="rotate(-31.7466 42 23.3662)" fill="#545454"/>
<circle cx="46.5549" cy="24.0757" r="2" transform="rotate(-31.7466 46.5549 24.0757)" fill="white"/>
<circle cx="52.5075" cy="20.3926" r="2" transform="rotate(-31.7466 52.5075 20.3926)" fill="white"/>
</g>
<g opacity="0.5">
<rect x="47.25" y="29.1162" width="14" height="6" rx="3" transform="rotate(-31.7466 47.25 29.1162)" fill="#545454"/>
<circle cx="51.8049" cy="29.8257" r="2" transform="rotate(-31.7466 51.8049 29.8257)" fill="white"/>
<circle cx="57.7575" cy="26.1426" r="2" transform="rotate(-31.7466 57.7575 26.1426)" fill="white"/>
</g>
<path d="M27.875 27.875L30.5 25.75" stroke="#545454" stroke-width="1.25" stroke-linecap="round"/>
<path d="M34.5 27.875L37.125 25.75" stroke="#545454" stroke-width="1.25" stroke-linecap="round"/>
<path d="M31.5 14.5H37.375" stroke="#545454" stroke-width="1.5" stroke-linecap="round"/>
<circle opacity="0.5" cx="16.75" cy="24.75" r="7.5" fill="#545454"/>
<rect x="15.25" y="19.5" width="3.25" height="10.25" rx="0.5" fill="white"/>
<path d="M16.6585 20.375C16.7547 20.2083 16.9953 20.2083 17.0915 20.375L17.6328 21.3125C17.729 21.4792 17.6087 21.6875 17.4163 21.6875H16.3337C16.1413 21.6875 16.021 21.4792 16.1172 21.3125L16.6585 20.375Z" fill="#545454"/>
<path d="M16.6585 28.875C16.7547 29.0417 16.9953 29.0417 17.0915 28.875L17.6328 27.9375C17.729 27.7708 17.6087 27.5625 17.4163 27.5625H16.3337C16.1413 27.5625 16.021 27.7708 16.1172 27.9375L16.6585 28.875Z" fill="#545454"/>
<rect x="11.75" y="26.25" width="3.25" height="10.25" rx="0.5" transform="rotate(-90 11.75 26.25)" fill="white"/>
<path d="M12.625 24.8415C12.4583 24.7453 12.4583 24.5047 12.625 24.4085L13.5625 23.8672C13.7292 23.771 13.9375 23.8913 13.9375 24.0837V25.1663C13.9375 25.3587 13.7292 25.479 13.5625 25.3828L12.625 24.8415Z" fill="#545454"/>
<path d="M21.125 24.8415C21.2917 24.7453 21.2917 24.5047 21.125 24.4085L20.1875 23.8672C20.0208 23.771 19.8125 23.8913 19.8125 24.0837V25.1663C19.8125 25.3587 20.0208 25.479 20.1875 25.3828L21.125 24.8415Z" fill="#545454"/>
</svg>
