<svg width="70" height="50" viewBox="0 0 70 50" fill="none" xmlns="http://www.w3.org/2000/svg">
<path d="M33.6709 38.2784C31.6178 38.0817 29.5393 37.3445 27.7538 36.1794C26.2576 35.2037 25.92 34.8019 25.92 34.0012C25.92 32.3926 27.6887 29.5747 30.7151 26.363C32.4334 24.5385 34.8272 22.4012 35.0859 22.4588C35.5896 22.5712 39.6134 26.4962 41.1201 28.3443C43.5022 31.2654 44.5969 33.658 44.0405 34.7245C43.6177 35.5351 40.9934 37.1199 39.0657 37.7286C37.4766 38.2304 35.3898 38.4429 33.6709 38.2784ZM23.8991 32.3288C22.6557 30.4212 22.0275 28.5435 21.7245 25.8275C21.6242 24.9307 21.6595 24.418 21.9516 22.5768C22.3149 20.2845 23.6212 17.6299 25.1917 15.9974C25.8602 15.3035 25.9197 15.2849 26.735 15.5606C27.7231 15.8952 28.7794 16.625 30.4181 18.1069L31.3752 18.9724L30.8517 19.6136C28.4269 22.5904 25.8676 26.8125 24.9043 29.4238C24.3808 30.8425 24.1701 32.2674 24.3962 32.8606C24.548 33.2615 24.4086 33.1122 23.8975 32.3297L23.8991 32.3288ZM45.7229 32.6531C45.8458 32.0534 45.6903 30.9525 45.3264 29.8417C44.538 27.4364 41.9022 22.9618 39.4821 19.9193L38.72 18.9615L39.5446 18.2048C40.6207 17.2166 41.3679 16.625 42.1745 16.1222C42.8105 15.7257 43.7196 15.3748 44.1105 15.3748C44.3512 15.3748 45.1997 16.2576 45.8843 17.2179C46.9449 18.7047 47.7249 20.5107 48.1201 22.3878C48.3757 23.6021 48.3971 26.1979 48.1613 27.4091C47.9662 28.4028 47.5573 29.6908 47.1608 30.5647C46.8603 31.2192 46.12 32.4908 45.7947 32.9046C45.6275 33.1174 45.6275 33.1171 45.7204 32.658L45.7229 32.6531ZM33.8908 14.9207C32.7738 14.3538 31.0509 13.7451 30.0993 13.5809C29.766 13.5236 29.197 13.4911 28.8355 13.5097C28.0499 13.5493 28.0849 13.5085 29.3444 12.9134C30.3914 12.4187 31.2649 12.1278 32.4513 11.8788C33.7849 11.5984 36.2924 11.5954 37.6049 11.872C39.0221 12.1709 40.6914 12.792 41.6318 13.3712L41.9118 13.5428L41.2706 13.5106C39.9956 13.4462 38.1377 13.9613 36.1428 14.9315C35.5412 15.2245 35.0184 15.4581 34.9799 15.4519C34.9418 15.4445 34.4515 15.2056 33.8896 14.9207H33.8908Z" fill="#107C10"/>
</svg>
