<svg width="70" height="50" viewBox="0 0 70 50" fill="none" xmlns="http://www.w3.org/2000/svg">
<g clip-path="url(#clip0_753_2739)">
<g clip-path="url(#clip1_753_2739)">
<path d="M11.3708 32.8834C6.3529 32.8817 3 29.3257 3 25.0141C3 20.7025 6.36055 17.1057 11.3631 17.1167H58.6369C63.6395 17.1057 67 20.7025 67 25.0141C67 29.3257 63.6471 32.8817 58.6292 32.8834H11.3708ZM11.3861 19.0562C7.41359 19.0639 4.97519 21.719 4.97519 25.0039C4.97519 28.288 7.39829 30.9652 11.3861 30.9507H58.6139C62.6017 30.9643 65.0257 28.288 65.0257 25.0039C65.0257 21.7198 62.5873 19.0647 58.6148 19.0571L11.3861 19.0562ZM61.1543 21.8286C61.5155 21.8286 61.6949 21.951 61.6949 22.1932C61.6949 22.3598 61.5912 22.4856 61.4186 22.529L61.7017 23.0941H61.3591L61.1169 22.5757H60.9665V23.0941H60.658V21.8286H61.1543ZM61.1263 21.334C60.4956 21.334 59.984 21.8456 59.984 22.4763C59.984 23.1069 60.4956 23.6185 61.1263 23.6185C61.7569 23.6185 62.2685 23.1069 62.2685 22.4763C62.2685 21.8456 61.7569 21.334 61.1263 21.334ZM62.0501 22.4771C62.0501 22.9871 61.6362 23.401 61.1263 23.401C60.6163 23.401 60.2024 22.9871 60.2024 22.4771C60.2024 21.9672 60.6163 21.5533 61.1263 21.5533C61.6362 21.5533 62.0501 21.9663 62.0501 22.4771ZM60.9665 22.3904H61.1169C61.2928 22.3904 61.3778 22.3369 61.3778 22.2111C61.3778 22.0794 61.2869 22.0224 61.1016 22.0224H60.9665V22.3904ZM35.1496 25.4832C35.1462 25.0506 35.1555 24.7617 35.2975 24.5152C35.4717 24.2109 35.7921 24.0665 36.0828 24.0648H36.0819C36.3726 24.0665 36.693 24.2109 36.8672 24.5152C37.0092 24.7625 37.0151 25.0515 37.0117 25.4841L35.1496 25.4832ZM37.0041 26.9714C37.0041 26.9714 37.0058 26.9935 37.0058 27.2706C37.0058 28.1732 36.4117 28.3738 36.0819 28.3738C35.7522 28.3738 35.1479 28.1732 35.1479 27.2706C35.1479 27.0003 35.1496 26.2516 35.1496 26.2516C35.1496 26.2516 39.3541 26.2533 39.3541 26.2507C39.3541 24.72 37.8761 23.4519 36.0607 23.4519C34.2453 23.4519 32.7741 24.6928 32.7741 26.2235C32.7741 27.7542 34.2453 28.9942 36.0607 28.9942C37.5667 28.9942 38.839 28.1349 39.2275 26.9697L37.0041 26.9714ZM44.0269 23.5344C44.8615 23.5106 46.5545 24.0571 46.5426 26.011C46.5409 26.3578 46.5418 28.6968 46.5418 28.6968H44.3243C44.3243 28.6968 44.3243 25.7637 44.3243 25.4552C44.3243 25.0251 43.913 24.5466 43.3045 24.5466C42.6968 24.5466 42.2446 25.0251 42.2446 25.4552C42.2446 25.666 42.2472 28.6968 42.2472 28.6968H40.0314L40.0331 23.7613L42.248 23.7596C42.248 23.7596 42.2455 24.1565 42.248 24.2789C42.6747 23.8718 43.29 23.5557 44.0269 23.5344ZM25.8881 23.5344C26.7227 23.5106 28.4157 24.0571 28.4038 26.011C28.4021 26.3578 28.403 28.6968 28.403 28.6968H26.1855C26.1855 28.6968 26.1855 25.7637 26.1855 25.4552C26.1855 25.0251 25.7742 24.5466 25.1657 24.5466C24.558 24.5466 24.1058 25.0251 24.1058 25.4552C24.1058 25.666 24.1084 28.6968 24.1084 28.6968H21.8926L21.8918 23.7613L24.1092 23.7596C24.1092 23.7596 24.1066 24.1565 24.1092 24.2789C24.5358 23.8718 25.1504 23.5557 25.8881 23.5344ZM51.3531 21.2762H53.5561V28.6985H51.3497C51.3497 28.6985 51.3489 28.4588 51.3489 28.4129C50.4947 28.9492 49.5309 28.9483 48.7804 28.5982C48.579 28.5047 47.254 27.8689 47.254 26.1513C47.254 24.8484 48.483 23.4256 50.0918 23.5667C50.6213 23.6134 50.9979 23.8064 51.3548 24.007C51.3531 22.8647 51.3531 21.2762 51.3531 21.2762ZM51.3693 26.2057C51.3693 26.2057 51.3693 25.5869 51.3693 25.3235C51.3693 24.5602 50.8423 24.3656 50.4956 24.3656C50.1403 24.3656 49.6202 24.5602 49.6202 25.3235C49.6202 25.5767 49.621 26.2031 49.621 26.2031C49.621 26.2031 49.6202 26.8185 49.6202 27.0811C49.6202 27.8435 50.1403 28.0432 50.4947 28.0432C50.8423 28.0432 51.3701 27.8435 51.3701 27.0811C51.3701 26.7641 51.3693 26.2057 51.3693 26.2057ZM58.4414 26.1912C58.4414 26.1912 58.4405 26.9375 58.4405 27.2366C58.4405 28.0236 57.9756 28.3483 57.5286 28.3483C57.0807 28.3483 56.6141 28.0236 56.6141 27.2366C56.6141 26.9375 56.6149 26.1725 56.6149 26.1725C56.6149 26.1725 56.6166 25.4425 56.6166 25.1433C56.6166 24.3597 57.0841 24.0376 57.5286 24.0376C57.9739 24.0376 58.4405 24.3597 58.4405 25.1433C58.4405 25.4425 58.4397 25.9957 58.4422 26.1938L58.4414 26.1912ZM57.5447 23.4256C55.7429 23.4256 54.2828 24.6665 54.2828 26.1972C54.2828 27.7279 55.7438 28.9687 57.5447 28.9687C59.3465 28.9687 60.8067 27.7279 60.8067 26.1972C60.8067 24.6665 59.3465 23.4256 57.5447 23.4256ZM18.4259 22.7916V21.2745H20.6628V22.7916H18.4259ZM18.431 28.6985V23.7622L20.6629 23.7631V28.6985L18.431 28.6985ZM29.6286 28.6985L29.6294 23.7724H28.4158V23.0398L29.6303 23.0389L29.6286 22.0394H31.8622V23.038H33.0707V23.7724H31.8622L31.8639 28.6984L29.6286 28.6985ZM9.34799 28.6985L9.34884 21.2762H11.6614L14.8605 26.4522L14.8588 21.2762H17.1536V28.6985H14.8622L11.6461 23.5225V28.6985H9.34799Z" fill="#E60012"/>
</g>
</g>
<defs>
<clipPath id="clip0_753_2739">
<rect width="70" height="50" fill="white"/>
</clipPath>
<clipPath id="clip1_753_2739">
<rect width="75" height="25" fill="white" transform="translate(-2.5 12.5)"/>
</clipPath>
</defs>
</svg>
