<svg width="24" height="24" viewBox="0 0 24 24" fill="none" xmlns="http://www.w3.org/2000/svg">
<path d="M10.2001 17.65H10.2004C12.1755 17.6478 14.0691 16.8622 15.4657 15.4656C16.8624 14.069 17.648 12.1754 17.6502 10.2003V10.2C17.6502 8.72653 17.2132 7.28615 16.3946 6.061C15.576 4.83586 14.4124 3.88097 13.0511 3.3171C11.6898 2.75323 10.1918 2.60569 8.74665 2.89315C7.30147 3.18061 5.974 3.89016 4.93208 4.93206C3.89017 5.97396 3.18062 7.30142 2.89315 8.74658C2.60569 10.1917 2.75323 11.6897 3.31711 13.051C3.88099 14.4123 4.83588 15.5758 6.06104 16.3944C7.2862 17.2131 8.7266 17.65 10.2001 17.65ZM20.1001 21.25H20.1002C20.3276 21.25 20.5499 21.1825 20.739 21.0561C20.9281 20.9297 21.0755 20.7502 21.1625 20.5401C21.2495 20.3299 21.2723 20.0988 21.2279 19.8757C21.1836 19.6527 21.0741 19.4478 20.9133 19.2869L20.9133 19.2869L17.3132 15.6869L17.3132 15.6869L17.3101 15.6839C17.0932 15.4744 16.8027 15.3585 16.5012 15.3611C16.1997 15.3637 15.9112 15.4847 15.698 15.6979C15.4848 15.9111 15.3639 16.1995 15.3612 16.5011C15.3586 16.8026 15.4745 17.0931 15.684 17.31L15.684 17.31L15.6871 17.3131L19.2871 20.9131C19.5027 21.1287 19.7952 21.2499 20.1001 21.25ZM7.33886 5.91793C8.18572 5.35209 9.18134 5.05005 10.1998 5.05C11.5654 5.05137 12.8746 5.59442 13.8402 6.55998C14.8057 7.52554 15.3488 8.83474 15.3502 10.2002C15.3501 11.2187 15.0481 12.2143 14.4822 13.0612C13.9163 13.9081 13.112 14.5682 12.1709 14.958C11.2299 15.3478 10.1944 15.4498 9.19536 15.251C8.19634 15.0523 7.27869 14.5618 6.55844 13.8416C5.83819 13.1214 5.3477 12.2037 5.14898 11.2047C4.95026 10.2057 5.05225 9.17022 5.44205 8.22918C5.83184 7.28814 6.49194 6.48382 7.33886 5.91793Z" fill="white" stroke="white" stroke-width="0.5"/>
</svg>
